<!-- Created with Inkscape (http://www.inkscape.org/) --><svg xmlns:inkscape="http://www.inkscape.org/namespaces/inkscape" xmlns:sodipodi="http://sodipodi.sourceforge.net/DTD/sodipodi-0.dtd" xmlns="http://www.w3.org/2000/svg" xmlns:svg="http://www.w3.org/2000/svg" width="32" height="32" viewBox="0 0 32 32" version="1.1" id="svg1" inkscape:version="1.3 (0e150ed6c4, 2023-07-21)" sodipodi:docname="PLANTILLA.svg">
  <sodipodi:namedview id="namedview1" pagecolor="#b6b6b6" bordercolor="#666666" borderopacity="1.0" inkscape:showpageshadow="2" inkscape:pageopacity="0.0" inkscape:pagecheckerboard="true" inkscape:deskcolor="#d1d1d1" inkscape:document-units="px" showgrid="true" shape-rendering="crispEdges" inkscape:zoom="24.09375" inkscape:cx="16" inkscape:cy="16" inkscape:window-width="1920" inkscape:window-height="1009" inkscape:window-x="1912" inkscape:window-y="-8" inkscape:window-maximized="1" inkscape:current-layer="layer1">
    <inkscape:grid id="grid1" units="px" originx="0" originy="0" spacingx="1" spacingy="1" empcolor="#0099e5" empopacity="0.30196078" color="#0099e5" opacity="0.14901961" empspacing="4" dotted="false" gridanglex="30" gridanglez="30" visible="true"/>
  </sodipodi:namedview>
  <defs id="defs1"/>
  <g inkscape:label="Capa 1" inkscape:groupmode="layer" id="layer1"/>
<g inkscape:groupmode="layer" inkscape:label="Capa 1"><rect x="104" y="96" width="98" height="84" style="fill:#000000"/><rect x="110" y="72" width="98" height="18" style="fill:#808080"/><rect x="118" y="58" width="92" height="10" style="fill:#7f7f7f"/><rect x="146" y="180" width="56" height="4" style="fill:#000000"/><rect x="160" y="68" width="50" height="4" style="fill:#808080"/><rect x="140" y="90" width="68" height="2" style="fill:#808080"/><rect x="100" y="94" width="66" height="2" style="fill:#000000"/><rect x="202" y="96" width="2" height="60" style="fill:#000000"/><rect x="102" y="96" width="2" height="56" style="fill:#000000"/><rect x="126" y="92" width="54" height="2" style="fill:#010101"/><rect x="120" y="56" width="50" height="2" style="fill:#7f7f7f"/><rect x="112" y="68" width="48" height="2" style="fill:#7f7f7f"/><rect x="98" y="90" width="42" height="2" style="fill:#010101"/><rect x="166" y="94" width="42" height="2" style="fill:#010101"/><rect x="122" y="70" width="38" height="2" style="fill:#808080"/><rect x="204" y="118" width="2" height="38" style="fill:#010101"/><rect x="102" y="82" width="8" height="8" style="fill:#808080"/><rect x="202" y="156" width="2" height="32" style="fill:#010101"/><rect x="118" y="180" width="28" height="2" style="fill:#000000"/><rect x="174" y="184" width="28" height="2" style="fill:#000000"/><rect x="100" y="92" width="26" height="2" style="fill:#000000"/><rect x="100" y="96" width="2" height="26" style="fill:#000000"/><rect x="182" y="92" width="26" height="2" style="fill:#808080"/><rect x="204" y="96" width="2" height="22" style="fill:#000000"/><rect x="206" y="96" width="2" height="22" style="fill:#010101"/><rect x="106" y="76" width="4" height="6" style="fill:#808080"/><rect x="110" y="70" width="12" height="2" style="fill:#7f7f7f"/><rect x="206" y="118" width="2" height="10" style="fill:#515151"/><rect x="208" y="72" width="2" height="10" style="fill:#808080"/><rect x="114" y="64" width="4" height="4" style="fill:#7f7f7f"/><rect x="204" y="156" width="2" height="6" style="fill:#515151"/><rect x="208" y="84" width="2" height="6" style="fill:#515151"/><rect x="98" y="88" width="4" height="2" style="fill:#808080"/><rect x="116" y="60" width="2" height="4" style="fill:#7f7f7f"/><rect x="100" y="86" width="2" height="2" style="fill:#808080"/><rect x="102" y="152" width="2" height="2" style="fill:#000000"/><rect x="104" y="80" width="2" height="2" style="fill:#808080"/><rect x="108" y="74" width="2" height="2" style="fill:#808080"/><rect x="180" y="92" width="2" height="2" style="fill:#666666"/><rect x="208" y="82" width="2" height="2" style="fill:#7a7a7a"/></g></svg>