<!-- Created with Inkscape (http://www.inkscape.org/) --><svg xmlns:inkscape="http://www.inkscape.org/namespaces/inkscape" xmlns:sodipodi="http://sodipodi.sourceforge.net/DTD/sodipodi-0.dtd" xmlns="http://www.w3.org/2000/svg" xmlns:svg="http://www.w3.org/2000/svg" width="32" height="32" viewBox="0 0 32 32" version="1.1" id="svg1" inkscape:version="1.3 (0e150ed6c4, 2023-07-21)" sodipodi:docname="PLANTILLA.svg">
  <sodipodi:namedview id="namedview1" pagecolor="#b6b6b6" bordercolor="#666666" borderopacity="1.0" inkscape:showpageshadow="2" inkscape:pageopacity="0.0" inkscape:pagecheckerboard="true" inkscape:deskcolor="#d1d1d1" inkscape:document-units="px" showgrid="true" shape-rendering="crispEdges" inkscape:zoom="24.09375" inkscape:cx="16" inkscape:cy="16" inkscape:window-width="1920" inkscape:window-height="1009" inkscape:window-x="1912" inkscape:window-y="-8" inkscape:window-maximized="1" inkscape:current-layer="layer1">
    <inkscape:grid id="grid1" units="px" originx="0" originy="0" spacingx="1" spacingy="1" empcolor="#0099e5" empopacity="0.30196078" color="#0099e5" opacity="0.14901961" empspacing="4" dotted="false" gridanglex="30" gridanglez="30" visible="true"/>
  </sodipodi:namedview>
  <defs id="defs1"/>
  <g inkscape:label="Capa 1" inkscape:groupmode="layer" id="layer1"/>
<g inkscape:groupmode="layer" inkscape:label="Capa 1"><rect x="100" y="96" width="96" height="80" style="fill:#000000"/><rect x="124" y="70" width="80" height="20" style="fill:#808080"/><rect x="120" y="60" width="94" height="8" style="fill:#7f7f7f"/><rect x="204" y="88" width="8" height="54" style="fill:#525252"/><rect x="148" y="176" width="48" height="8" style="fill:#000000"/><rect x="96" y="90" width="48" height="6" style="fill:#000000"/><rect x="108" y="72" width="16" height="16" style="fill:#808080"/><rect x="124" y="56" width="46" height="4" style="fill:#7f7f7f"/><rect x="200" y="122" width="4" height="46" style="fill:#525252"/><rect x="196" y="96" width="2" height="78" style="fill:#000000"/><rect x="164" y="90" width="38" height="4" style="fill:#808080"/><rect x="98" y="96" width="2" height="56" style="fill:#000000"/><rect x="122" y="176" width="26" height="4" style="fill:#000000"/><rect x="160" y="68" width="52" height="2" style="fill:#808080"/><rect x="112" y="68" width="48" height="2" style="fill:#7f7f7f"/><rect x="198" y="138" width="2" height="44" style="fill:#525252"/><rect x="212" y="68" width="2" height="44" style="fill:#525252"/><rect x="144" y="92" width="20" height="4" style="fill:#000000"/><rect x="176" y="184" width="20" height="4" style="fill:#000000"/><rect x="198" y="96" width="2" height="34" style="fill:#000000"/><rect x="94" y="88" width="30" height="2" style="fill:#000000"/><rect x="204" y="142" width="4" height="14" style="fill:#525252"/><rect x="96" y="96" width="2" height="26" style="fill:#000000"/><rect x="200" y="96" width="2" height="26" style="fill:#535353"/><rect x="100" y="80" width="8" height="6" style="fill:#808080"/><rect x="170" y="58" width="24" height="2" style="fill:#7f7f7f"/><rect x="204" y="70" width="4" height="12" style="fill:#808080"/><rect x="208" y="76" width="4" height="12" style="fill:#525252"/><rect x="144" y="90" width="20" height="2" style="fill:#808080"/><rect x="164" y="94" width="20" height="2" style="fill:#000000"/><rect x="126" y="54" width="18" height="2" style="fill:#7f7f7f"/><rect x="184" y="94" width="18" height="2" style="fill:#808080"/><rect x="202" y="90" width="2" height="16" style="fill:#535353"/><rect x="202" y="106" width="2" height="16" style="fill:#525252"/><rect x="108" y="176" width="14" height="2" style="fill:#000000"/><rect x="134" y="180" width="14" height="2" style="fill:#000000"/><rect x="162" y="184" width="14" height="2" style="fill:#000000"/><rect x="214" y="64" width="2" height="14" style="fill:#525252"/><rect x="110" y="70" width="12" height="2" style="fill:#7f7f7f"/><rect x="196" y="176" width="2" height="12" style="fill:#525252"/><rect x="94" y="86" width="10" height="2" style="fill:#000000"/><rect x="104" y="76" width="4" height="4" style="fill:#808080"/><rect x="116" y="64" width="4" height="4" style="fill:#7f7f7f"/><rect x="198" y="130" width="2" height="8" style="fill:#535353"/><rect x="208" y="142" width="2" height="8" style="fill:#525252"/><rect x="190" y="188" width="6" height="2" style="fill:#000000"/><rect x="200" y="168" width="2" height="6" style="fill:#525252"/><rect x="204" y="156" width="2" height="6" style="fill:#525252"/><rect x="206" y="82" width="2" height="6" style="fill:#525252"/><rect x="208" y="70" width="2" height="6" style="fill:#808080"/><rect x="94" y="90" width="2" height="4" style="fill:#000000"/><rect x="96" y="84" width="4" height="2" style="fill:#808080"/><rect x="104" y="86" width="4" height="2" style="fill:#808080"/><rect x="204" y="82" width="2" height="4" style="fill:#808080"/><rect x="210" y="72" width="2" height="4" style="fill:#525252"/><rect x="214" y="60" width="2" height="4" style="fill:#7f7f7f"/><rect x="94" y="94" width="2" height="2" style="fill:#000000"/><rect x="96" y="122" width="2" height="2" style="fill:#000000"/><rect x="98" y="82" width="2" height="2" style="fill:#808080"/><rect x="102" y="78" width="2" height="2" style="fill:#808080"/><rect x="106" y="74" width="2" height="2" style="fill:#808080"/><rect x="114" y="66" width="2" height="2" style="fill:#7f7f7f"/><rect x="118" y="62" width="2" height="2" style="fill:#7f7f7f"/><rect x="120" y="178" width="2" height="2" style="fill:#000000"/><rect x="122" y="58" width="2" height="2" style="fill:#7f7f7f"/><rect x="122" y="70" width="2" height="2" style="fill:#808080"/><rect x="196" y="174" width="2" height="2" style="fill:#414141"/><rect x="200" y="174" width="2" height="2" style="fill:#525252"/><rect x="204" y="86" width="2" height="2" style="fill:#535353"/><rect x="210" y="70" width="2" height="2" style="fill:#808080"/></g></svg>