<!-- Created with Inkscape (http://www.inkscape.org/) --><svg xmlns:inkscape="http://www.inkscape.org/namespaces/inkscape" xmlns:sodipodi="http://sodipodi.sourceforge.net/DTD/sodipodi-0.dtd" xmlns="http://www.w3.org/2000/svg" xmlns:svg="http://www.w3.org/2000/svg" width="32" height="32" viewBox="0 0 32 32" version="1.1" id="svg1" inkscape:version="1.3 (0e150ed6c4, 2023-07-21)" sodipodi:docname="PLANTILLA.svg">
  <sodipodi:namedview id="namedview1" pagecolor="#b6b6b6" bordercolor="#666666" borderopacity="1.0" inkscape:showpageshadow="2" inkscape:pageopacity="0.0" inkscape:pagecheckerboard="true" inkscape:deskcolor="#d1d1d1" inkscape:document-units="px" showgrid="true" shape-rendering="crispEdges" inkscape:zoom="24.09375" inkscape:cx="16" inkscape:cy="16" inkscape:window-width="1920" inkscape:window-height="1009" inkscape:window-x="1912" inkscape:window-y="-8" inkscape:window-maximized="1" inkscape:current-layer="layer1">
    <inkscape:grid id="grid1" units="px" originx="0" originy="0" spacingx="1" spacingy="1" empcolor="#0099e5" empopacity="0.30196078" color="#0099e5" opacity="0.14901961" empspacing="4" dotted="false" gridanglex="30" gridanglez="30" visible="true"/>
  </sodipodi:namedview>
  <defs id="defs1"/>
  <g inkscape:label="Capa 1" inkscape:groupmode="layer" id="layer1"/>
<g inkscape:groupmode="layer" inkscape:label="Capa 1"><rect x="138" y="100" width="72" height="70" style="fill:#414141"/><rect x="100" y="98" width="36" height="52" style="fill:#000000"/><rect x="122" y="70" width="74" height="18" style="fill:#808080"/><rect x="210" y="84" width="16" height="62" style="fill:#414141"/><rect x="124" y="60" width="70" height="8" style="fill:#7f7f7f"/><rect x="138" y="170" width="50" height="10" style="fill:#414141"/><rect x="122" y="150" width="16" height="26" style="fill:#000000"/><rect x="168" y="92" width="42" height="8" style="fill:#414141"/><rect x="96" y="80" width="18" height="18" style="fill:#000000"/><rect x="196" y="70" width="18" height="14" style="fill:#808080"/><rect x="128" y="88" width="40" height="6" style="fill:#808080"/><rect x="100" y="64" width="22" height="8" style="fill:#7f7f7f"/><rect x="140" y="180" width="22" height="8" style="fill:#414141"/><rect x="146" y="56" width="40" height="4" style="fill:#7f7f7f"/><rect x="110" y="150" width="12" height="12" style="fill:#000000"/><rect x="210" y="146" width="10" height="12" style="fill:#414141"/><rect x="114" y="88" width="10" height="10" style="fill:#000000"/><rect x="160" y="68" width="50" height="2" style="fill:#808080"/><rect x="110" y="72" width="12" height="8" style="fill:#808080"/><rect x="136" y="102" width="2" height="48" style="fill:#000000"/><rect x="186" y="88" width="24" height="4" style="fill:#414141"/><rect x="122" y="68" width="38" height="2" style="fill:#7f7f7f"/><rect x="226" y="80" width="2" height="38" style="fill:#414141"/><rect x="150" y="96" width="18" height="4" style="fill:#414141"/><rect x="188" y="170" width="18" height="4" style="fill:#414141"/><rect x="96" y="72" width="8" height="8" style="fill:#000000"/><rect x="98" y="98" width="2" height="32" style="fill:#000000"/><rect x="130" y="176" width="8" height="8" style="fill:#000000"/><rect x="134" y="94" width="16" height="4" style="fill:#808080"/><rect x="214" y="74" width="8" height="8" style="fill:#808080"/><rect x="216" y="160" width="8" height="8" style="fill:#404040"/><rect x="158" y="54" width="26" height="2" style="fill:#7f7f7f"/><rect x="162" y="180" width="12" height="4" style="fill:#414141"/><rect x="140" y="188" width="10" height="4" style="fill:#414141"/><rect x="168" y="88" width="10" height="4" style="fill:#808080"/><rect x="116" y="162" width="6" height="6" style="fill:#000000"/><rect x="134" y="184" width="6" height="6" style="fill:#000000"/><rect x="194" y="64" width="8" height="4" style="fill:#7f7f7f"/><rect x="210" y="158" width="4" height="8" style="fill:#414141"/><rect x="196" y="86" width="14" height="2" style="fill:#414141"/><rect x="104" y="150" width="6" height="4" style="fill:#000000"/><rect x="112" y="62" width="12" height="2" style="fill:#7f7f7f"/><rect x="116" y="80" width="6" height="4" style="fill:#808080"/><rect x="124" y="92" width="4" height="6" style="fill:#000000"/><rect x="134" y="58" width="12" height="2" style="fill:#7f7f7f"/><rect x="188" y="174" width="12" height="2" style="fill:#414141"/><rect x="214" y="82" width="12" height="2" style="fill:#414141"/><rect x="220" y="146" width="4" height="6" style="fill:#414141"/><rect x="228" y="80" width="2" height="12" style="fill:#414141"/><rect x="140" y="98" width="10" height="2" style="fill:#414141"/><rect x="150" y="94" width="10" height="2" style="fill:#808080"/><rect x="170" y="52" width="10" height="2" style="fill:#7f7f7f"/><rect x="94" y="68" width="4" height="4" style="fill:#000000"/><rect x="104" y="76" width="4" height="4" style="fill:#000000"/><rect x="106" y="72" width="4" height="4" style="fill:#808080"/><rect x="114" y="84" width="4" height="4" style="fill:#000000"/><rect x="126" y="176" width="4" height="4" style="fill:#000000"/><rect x="160" y="94" width="8" height="2" style="fill:#414141"/><rect x="178" y="88" width="8" height="2" style="fill:#808080"/><rect x="178" y="90" width="8" height="2" style="fill:#414141"/><rect x="196" y="84" width="8" height="2" style="fill:#808080"/><rect x="210" y="168" width="8" height="2" style="fill:#404040"/><rect x="220" y="156" width="4" height="4" style="fill:#404040"/><rect x="222" y="76" width="4" height="4" style="fill:#808080"/><rect x="128" y="96" width="6" height="2" style="fill:#000000"/><rect x="150" y="188" width="6" height="2" style="fill:#414141"/><rect x="162" y="184" width="6" height="2" style="fill:#414141"/><rect x="174" y="180" width="6" height="2" style="fill:#414141"/><rect x="188" y="176" width="6" height="2" style="fill:#414141"/><rect x="214" y="162" width="2" height="6" style="fill:#404040"/><rect x="96" y="66" width="4" height="2" style="fill:#7f7f7f"/><rect x="106" y="154" width="4" height="2" style="fill:#000000"/><rect x="112" y="162" width="4" height="2" style="fill:#000000"/><rect x="118" y="84" width="4" height="2" style="fill:#808080"/><rect x="118" y="168" width="4" height="2" style="fill:#000000"/><rect x="122" y="64" width="2" height="4" style="fill:#7f7f7f"/><rect x="124" y="88" width="4" height="2" style="fill:#808080"/><rect x="130" y="94" width="4" height="2" style="fill:#808080"/><rect x="136" y="98" width="4" height="2" style="fill:#808080"/><rect x="136" y="190" width="4" height="2" style="fill:#000000"/><rect x="138" y="180" width="2" height="4" style="fill:#000000"/><rect x="140" y="192" width="4" height="2" style="fill:#414141"/><rect x="186" y="58" width="4" height="2" style="fill:#7f7f7f"/><rect x="194" y="62" width="4" height="2" style="fill:#7f7f7f"/><rect x="202" y="66" width="4" height="2" style="fill:#7f7f7f"/><rect x="206" y="84" width="4" height="2" style="fill:#414141"/><rect x="208" y="170" width="4" height="2" style="fill:#404040"/><rect x="214" y="72" width="4" height="2" style="fill:#808080"/><rect x="214" y="158" width="4" height="2" style="fill:#414141"/><rect x="94" y="66" width="2" height="2" style="fill:#000000"/><rect x="96" y="98" width="2" height="2" style="fill:#000000"/><rect x="96" y="100" width="2" height="2" style="fill:#000000"/><rect x="98" y="68" width="2" height="2" style="fill:#7f7f7f"/><rect x="98" y="70" width="2" height="2" style="fill:#000000"/><rect x="102" y="150" width="2" height="2" style="fill:#000000"/><rect x="104" y="72" width="2" height="2" style="fill:#808080"/><rect x="104" y="74" width="2" height="2" style="fill:#000000"/><rect x="108" y="76" width="2" height="2" style="fill:#808080"/><rect x="108" y="78" width="2" height="2" style="fill:#000000"/><rect x="108" y="156" width="2" height="2" style="fill:#000000"/><rect x="108" y="158" width="2" height="2" style="fill:#000000"/><rect x="114" y="80" width="2" height="2" style="fill:#808080"/><rect x="114" y="82" width="2" height="2" style="fill:#000000"/><rect x="114" y="164" width="2" height="2" style="fill:#000000"/><rect x="118" y="86" width="2" height="2" style="fill:#000000"/><rect x="120" y="86" width="2" height="2" style="fill:#808080"/><rect x="120" y="170" width="2" height="2" style="fill:#000000"/><rect x="122" y="60" width="2" height="2" style="fill:#7f7f7f"/><rect x="124" y="90" width="2" height="2" style="fill:#000000"/><rect x="124" y="176" width="2" height="2" style="fill:#000000"/><rect x="126" y="90" width="2" height="2" style="fill:#808080"/><rect x="128" y="94" width="2" height="2" style="fill:#000000"/><rect x="128" y="180" width="2" height="2" style="fill:#000000"/><rect x="132" y="184" width="2" height="2" style="fill:#000000"/><rect x="136" y="100" width="2" height="2" style="fill:#262626"/><rect x="138" y="192" width="2" height="2" style="fill:#000000"/><rect x="180" y="180" width="2" height="2" style="fill:#404040"/><rect x="204" y="84" width="2" height="2" style="fill:#737373"/><rect x="206" y="170" width="2" height="2" style="fill:#414141"/><rect x="210" y="166" width="2" height="2" style="fill:#414141"/><rect x="212" y="166" width="2" height="2" style="fill:#404040"/><rect x="214" y="160" width="2" height="2" style="fill:#414141"/><rect x="218" y="158" width="2" height="2" style="fill:#404040"/><rect x="220" y="152" width="2" height="2" style="fill:#414141"/><rect x="220" y="154" width="2" height="2" style="fill:#404041"/><rect x="222" y="80" width="2" height="2" style="fill:#808080"/><rect x="222" y="152" width="2" height="2" style="fill:#404041"/><rect x="222" y="154" width="2" height="2" style="fill:#404040"/><rect x="224" y="80" width="2" height="2" style="fill:#414141"/><rect x="226" y="78" width="2" height="2" style="fill:#808080"/><rect x="226" y="118" width="2" height="2" style="fill:#414141"/></g></svg>