<!-- Created with Inkscape (http://www.inkscape.org/) --><svg xmlns:inkscape="http://www.inkscape.org/namespaces/inkscape" xmlns:sodipodi="http://sodipodi.sourceforge.net/DTD/sodipodi-0.dtd" xmlns="http://www.w3.org/2000/svg" xmlns:svg="http://www.w3.org/2000/svg" width="32" height="32" viewBox="0 0 32 32" version="1.1" id="svg1" inkscape:version="1.3 (0e150ed6c4, 2023-07-21)" sodipodi:docname="PLANTILLA.svg">
  <sodipodi:namedview id="namedview1" pagecolor="#b6b6b6" bordercolor="#666666" borderopacity="1.0" inkscape:showpageshadow="2" inkscape:pageopacity="0.0" inkscape:pagecheckerboard="true" inkscape:deskcolor="#d1d1d1" inkscape:document-units="px" showgrid="true" shape-rendering="crispEdges" inkscape:zoom="24.09375" inkscape:cx="16" inkscape:cy="16" inkscape:window-width="1920" inkscape:window-height="1009" inkscape:window-x="1912" inkscape:window-y="-8" inkscape:window-maximized="1" inkscape:current-layer="layer1">
    <inkscape:grid id="grid1" units="px" originx="0" originy="0" spacingx="1" spacingy="1" empcolor="#0099e5" empopacity="0.30196078" color="#0099e5" opacity="0.14901961" empspacing="4" dotted="false" gridanglex="30" gridanglez="30" visible="true"/>
  </sodipodi:namedview>
  <defs id="defs1"/>
  <g inkscape:label="Capa 1" inkscape:groupmode="layer" id="layer1"/>
<g inkscape:groupmode="layer" inkscape:label="Capa 1"><rect x="116" y="98" width="98" height="82" style="fill:#242424"/><rect x="110" y="72" width="100" height="18" style="fill:#808080"/><rect x="110" y="58" width="90" height="10" style="fill:#7f7f7f"/><rect x="116" y="180" width="56" height="4" style="fill:#242424"/><rect x="160" y="68" width="48" height="4" style="fill:#808080"/><rect x="214" y="94" width="4" height="48" style="fill:#242424"/><rect x="110" y="90" width="68" height="2" style="fill:#808080"/><rect x="114" y="100" width="2" height="68" style="fill:#242424"/><rect x="148" y="96" width="66" height="2" style="fill:#242424"/><rect x="140" y="92" width="54" height="2" style="fill:#242424"/><rect x="110" y="68" width="50" height="2" style="fill:#7f7f7f"/><rect x="150" y="56" width="50" height="2" style="fill:#7f7f7f"/><rect x="112" y="94" width="42" height="2" style="fill:#242424"/><rect x="180" y="90" width="40" height="2" style="fill:#242424"/><rect x="122" y="70" width="38" height="2" style="fill:#808080"/><rect x="112" y="96" width="2" height="34" style="fill:#242424"/><rect x="214" y="142" width="2" height="32" style="fill:#242424"/><rect x="116" y="184" width="30" height="2" style="fill:#242424"/><rect x="210" y="80" width="6" height="10" style="fill:#808080"/><rect x="172" y="180" width="28" height="2" style="fill:#242424"/><rect x="112" y="92" width="26" height="2" style="fill:#808080"/><rect x="190" y="94" width="24" height="2" style="fill:#242424"/><rect x="218" y="92" width="2" height="20" style="fill:#242424"/><rect x="170" y="94" width="16" height="2" style="fill:#232323"/><rect x="110" y="70" width="12" height="2" style="fill:#7f7f7f"/><rect x="110" y="94" width="2" height="12" style="fill:#000000"/><rect x="112" y="130" width="2" height="12" style="fill:#000000"/><rect x="196" y="92" width="12" height="2" style="fill:#222222"/><rect x="200" y="62" width="4" height="6" style="fill:#7f7f7f"/><rect x="134" y="96" width="10" height="2" style="fill:#232323"/><rect x="156" y="94" width="10" height="2" style="fill:#222222"/><rect x="208" y="92" width="10" height="2" style="fill:#232323"/><rect x="108" y="58" width="2" height="8" style="fill:#7f7f7f"/><rect x="118" y="96" width="6" height="2" style="fill:#212121"/><rect x="124" y="96" width="6" height="2" style="fill:#222222"/><rect x="210" y="74" width="2" height="6" style="fill:#808080"/><rect x="216" y="84" width="2" height="6" style="fill:#808080"/><rect x="108" y="66" width="2" height="4" style="fill:#000000"/><rect x="114" y="168" width="2" height="4" style="fill:#000000"/><rect x="110" y="92" width="2" height="2" style="fill:#171717"/><rect x="114" y="96" width="2" height="2" style="fill:#242424"/><rect x="114" y="98" width="2" height="2" style="fill:#232323"/><rect x="116" y="96" width="2" height="2" style="fill:#222222"/><rect x="116" y="186" width="2" height="2" style="fill:#242424"/><rect x="130" y="96" width="2" height="2" style="fill:#232323"/><rect x="132" y="96" width="2" height="2" style="fill:#222222"/><rect x="138" y="92" width="2" height="2" style="fill:#6b6b6b"/><rect x="144" y="96" width="2" height="2" style="fill:#242424"/><rect x="146" y="96" width="2" height="2" style="fill:#232323"/><rect x="148" y="56" width="2" height="2" style="fill:#7f7f7f"/><rect x="154" y="94" width="2" height="2" style="fill:#232323"/><rect x="166" y="94" width="2" height="2" style="fill:#232323"/><rect x="168" y="94" width="2" height="2" style="fill:#222222"/><rect x="178" y="90" width="2" height="2" style="fill:#717171"/><rect x="186" y="94" width="2" height="2" style="fill:#242424"/><rect x="188" y="94" width="2" height="2" style="fill:#232323"/><rect x="194" y="92" width="2" height="2" style="fill:#232323"/><rect x="200" y="60" width="2" height="2" style="fill:#7f7f7f"/><rect x="204" y="66" width="2" height="2" style="fill:#7f7f7f"/><rect x="212" y="78" width="2" height="2" style="fill:#808080"/><rect x="218" y="86" width="2" height="2" style="fill:#808080"/><rect x="218" y="88" width="2" height="2" style="fill:#7f7f7f"/></g></svg>