<!-- Created with Inkscape (http://www.inkscape.org/) --><svg xmlns:inkscape="http://www.inkscape.org/namespaces/inkscape" xmlns:sodipodi="http://sodipodi.sourceforge.net/DTD/sodipodi-0.dtd" xmlns="http://www.w3.org/2000/svg" xmlns:svg="http://www.w3.org/2000/svg" width="32" height="32" viewBox="0 0 32 32" version="1.1" id="svg1" inkscape:version="1.3 (0e150ed6c4, 2023-07-21)" sodipodi:docname="PLANTILLA.svg">
  <sodipodi:namedview id="namedview1" pagecolor="#b6b6b6" bordercolor="#666666" borderopacity="1.0" inkscape:showpageshadow="2" inkscape:pageopacity="0.0" inkscape:pagecheckerboard="true" inkscape:deskcolor="#d1d1d1" inkscape:document-units="px" showgrid="true" shape-rendering="crispEdges" inkscape:zoom="24.09375" inkscape:cx="16" inkscape:cy="16" inkscape:window-width="1920" inkscape:window-height="1009" inkscape:window-x="1912" inkscape:window-y="-8" inkscape:window-maximized="1" inkscape:current-layer="layer1">
    <inkscape:grid id="grid1" units="px" originx="0" originy="0" spacingx="1" spacingy="1" empcolor="#0099e5" empopacity="0.30196078" color="#0099e5" opacity="0.14901961" empspacing="4" dotted="false" gridanglex="30" gridanglez="30" visible="true"/>
  </sodipodi:namedview>
  <defs id="defs1"/>
  <g inkscape:label="Capa 1" inkscape:groupmode="layer" id="layer1"/>
<g inkscape:groupmode="layer" inkscape:label="Capa 1"><rect x="100" y="96" width="92" height="78" style="fill:#000000"/><rect x="128" y="70" width="74" height="20" style="fill:#808080"/><rect x="196" y="96" width="14" height="54" style="fill:#535353"/><rect x="122" y="60" width="88" height="8" style="fill:#7f7f7f"/><rect x="148" y="174" width="44" height="10" style="fill:#000000"/><rect x="106" y="72" width="22" height="14" style="fill:#808080"/><rect x="94" y="90" width="50" height="6" style="fill:#000000"/><rect x="210" y="74" width="6" height="38" style="fill:#535353"/><rect x="96" y="96" width="4" height="48" style="fill:#000000"/><rect x="194" y="150" width="10" height="18" style="fill:#535353"/><rect x="126" y="56" width="44" height="4" style="fill:#7f7f7f"/><rect x="160" y="90" width="40" height="4" style="fill:#808080"/><rect x="192" y="98" width="2" height="80" style="fill:#000000"/><rect x="126" y="174" width="22" height="6" style="fill:#000000"/><rect x="160" y="68" width="54" height="2" style="fill:#808080"/><rect x="112" y="68" width="48" height="2" style="fill:#7f7f7f"/><rect x="170" y="184" width="22" height="4" style="fill:#000000"/><rect x="92" y="86" width="20" height="4" style="fill:#000000"/><rect x="202" y="86" width="8" height="10" style="fill:#535353"/><rect x="144" y="92" width="16" height="4" style="fill:#000000"/><rect x="202" y="70" width="8" height="8" style="fill:#808080"/><rect x="194" y="98" width="2" height="30" style="fill:#000000"/><rect x="98" y="144" width="2" height="28" style="fill:#000000"/><rect x="194" y="168" width="4" height="14" style="fill:#535353"/><rect x="210" y="112" width="4" height="14" style="fill:#535353"/><rect x="98" y="80" width="8" height="6" style="fill:#808080"/><rect x="104" y="174" width="22" height="2" style="fill:#000000"/><rect x="128" y="54" width="22" height="2" style="fill:#7f7f7f"/><rect x="176" y="94" width="22" height="2" style="fill:#808080"/><rect x="194" y="128" width="2" height="22" style="fill:#535353"/><rect x="216" y="64" width="2" height="22" style="fill:#535353"/><rect x="94" y="96" width="2" height="20" style="fill:#000000"/><rect x="170" y="58" width="20" height="2" style="fill:#7f7f7f"/><rect x="210" y="62" width="6" height="6" style="fill:#7f7f7f"/><rect x="212" y="126" width="2" height="18" style="fill:#525252"/><rect x="112" y="86" width="16" height="2" style="fill:#808080"/><rect x="112" y="88" width="16" height="2" style="fill:#000000"/><rect x="144" y="90" width="16" height="2" style="fill:#808080"/><rect x="160" y="94" width="16" height="2" style="fill:#000000"/><rect x="204" y="150" width="4" height="8" style="fill:#535353"/><rect x="110" y="70" width="12" height="2" style="fill:#7f7f7f"/><rect x="116" y="64" width="6" height="4" style="fill:#7f7f7f"/><rect x="158" y="184" width="12" height="2" style="fill:#000000"/><rect x="180" y="188" width="12" height="2" style="fill:#000000"/><rect x="202" y="78" width="4" height="6" style="fill:#808080"/><rect x="206" y="80" width="4" height="6" style="fill:#535353"/><rect x="210" y="126" width="2" height="12" style="fill:#535353"/><rect x="210" y="138" width="2" height="12" style="fill:#525252"/><rect x="116" y="176" width="10" height="2" style="fill:#000000"/><rect x="138" y="180" width="10" height="2" style="fill:#000000"/><rect x="192" y="180" width="2" height="10" style="fill:#535353"/><rect x="102" y="76" width="4" height="4" style="fill:#808080"/><rect x="198" y="168" width="4" height="4" style="fill:#535353"/><rect x="212" y="70" width="4" height="4" style="fill:#535353"/><rect x="122" y="70" width="6" height="2" style="fill:#808080"/><rect x="200" y="90" width="2" height="6" style="fill:#535353"/><rect x="214" y="112" width="2" height="6" style="fill:#525252"/><rect x="92" y="84" width="4" height="2" style="fill:#000000"/><rect x="94" y="82" width="4" height="2" style="fill:#808080"/><rect x="118" y="62" width="4" height="2" style="fill:#7f7f7f"/><rect x="192" y="96" width="4" height="2" style="fill:#808080"/><rect x="194" y="182" width="2" height="4" style="fill:#535353"/><rect x="198" y="172" width="2" height="4" style="fill:#535353"/><rect x="204" y="158" width="2" height="4" style="fill:#535353"/><rect x="210" y="70" width="2" height="4" style="fill:#808080"/><rect x="94" y="116" width="2" height="2" style="fill:#000000"/><rect x="96" y="80" width="2" height="2" style="fill:#808080"/><rect x="96" y="84" width="2" height="2" style="fill:#717171"/><rect x="100" y="78" width="2" height="2" style="fill:#808080"/><rect x="104" y="74" width="2" height="2" style="fill:#808080"/><rect x="114" y="66" width="2" height="2" style="fill:#7f7f7f"/><rect x="124" y="58" width="2" height="2" style="fill:#7f7f7f"/><rect x="190" y="190" width="2" height="2" style="fill:#000000"/><rect x="192" y="178" width="2" height="2" style="fill:#010101"/><rect x="198" y="94" width="2" height="2" style="fill:#535353"/><rect x="202" y="84" width="2" height="2" style="fill:#808080"/><rect x="204" y="84" width="2" height="2" style="fill:#535353"/><rect x="206" y="78" width="2" height="2" style="fill:#808080"/><rect x="208" y="78" width="2" height="2" style="fill:#535353"/><rect x="208" y="150" width="2" height="2" style="fill:#535352"/><rect x="208" y="152" width="2" height="2" style="fill:#525252"/><rect x="214" y="68" width="2" height="2" style="fill:#535353"/><rect x="216" y="62" width="2" height="2" style="fill:#7f7f7f"/></g></svg>