<!-- Created with Inkscape (http://www.inkscape.org/) --><svg xmlns:inkscape="http://www.inkscape.org/namespaces/inkscape" xmlns:sodipodi="http://sodipodi.sourceforge.net/DTD/sodipodi-0.dtd" xmlns="http://www.w3.org/2000/svg" xmlns:svg="http://www.w3.org/2000/svg" width="32" height="32" viewBox="0 0 32 32" version="1.1" id="svg1" inkscape:version="1.3 (0e150ed6c4, 2023-07-21)" sodipodi:docname="PLANTILLA.svg">
  <sodipodi:namedview id="namedview1" pagecolor="#b6b6b6" bordercolor="#666666" borderopacity="1.0" inkscape:showpageshadow="2" inkscape:pageopacity="0.0" inkscape:pagecheckerboard="true" inkscape:deskcolor="#d1d1d1" inkscape:document-units="px" showgrid="true" shape-rendering="crispEdges" inkscape:zoom="24.09375" inkscape:cx="16" inkscape:cy="16" inkscape:window-width="1920" inkscape:window-height="1009" inkscape:window-x="1912" inkscape:window-y="-8" inkscape:window-maximized="1" inkscape:current-layer="layer1">
    <inkscape:grid id="grid1" units="px" originx="0" originy="0" spacingx="1" spacingy="1" empcolor="#0099e5" empopacity="0.30196078" color="#0099e5" opacity="0.14901961" empspacing="4" dotted="false" gridanglex="30" gridanglez="30" visible="true"/>
  </sodipodi:namedview>
  <defs id="defs1"/>
  <g inkscape:label="Capa 1" inkscape:groupmode="layer" id="layer1"/>
<g inkscape:groupmode="layer" inkscape:label="Capa 1"><rect x="148" y="100" width="76" height="64" style="fill:#474747"/><rect x="98" y="100" width="48" height="54" style="fill:#000000"/><rect x="124" y="70" width="70" height="18" style="fill:#808080"/><rect x="148" y="164" width="44" height="14" style="fill:#474747"/><rect x="126" y="60" width="68" height="8" style="fill:#7f7f7f"/><rect x="124" y="154" width="24" height="22" style="fill:#000000"/><rect x="180" y="90" width="48" height="10" style="fill:#474747"/><rect x="94" y="86" width="30" height="14" style="fill:#000000"/><rect x="194" y="68" width="18" height="14" style="fill:#808080"/><rect x="134" y="88" width="40" height="6" style="fill:#808080"/><rect x="148" y="178" width="20" height="10" style="fill:#474747"/><rect x="208" y="82" width="22" height="8" style="fill:#474747"/><rect x="144" y="56" width="40" height="4" style="fill:#7f7f7f"/><rect x="92" y="78" width="18" height="8" style="fill:#000000"/><rect x="112" y="154" width="12" height="12" style="fill:#000000"/><rect x="92" y="68" width="68" height="2" style="fill:#7f7f7f"/><rect x="112" y="72" width="12" height="10" style="fill:#808080"/><rect x="136" y="176" width="12" height="10" style="fill:#000000"/><rect x="192" y="164" width="14" height="8" style="fill:#474747"/><rect x="224" y="100" width="2" height="52" style="fill:#474747"/><rect x="146" y="108" width="2" height="46" style="fill:#000000"/><rect x="96" y="100" width="2" height="44" style="fill:#000000"/><rect x="166" y="94" width="14" height="6" style="fill:#474747"/><rect x="124" y="92" width="10" height="8" style="fill:#000000"/><rect x="140" y="94" width="20" height="4" style="fill:#808080"/><rect x="212" y="72" width="10" height="8" style="fill:#808080"/><rect x="108" y="64" width="18" height="4" style="fill:#7f7f7f"/><rect x="160" y="68" width="34" height="2" style="fill:#808080"/><rect x="168" y="178" width="10" height="6" style="fill:#474747"/><rect x="194" y="86" width="14" height="4" style="fill:#474747"/><rect x="96" y="70" width="26" height="2" style="fill:#7f7f7f"/><rect x="152" y="54" width="26" height="2" style="fill:#7f7f7f"/><rect x="226" y="100" width="2" height="24" style="fill:#474747"/><rect x="92" y="74" width="10" height="4" style="fill:#000000"/><rect x="102" y="72" width="10" height="4" style="fill:#808080"/><rect x="102" y="154" width="10" height="4" style="fill:#000000"/><rect x="148" y="188" width="10" height="4" style="fill:#474747"/><rect x="142" y="186" width="6" height="6" style="fill:#000000"/><rect x="94" y="100" width="2" height="16" style="fill:#000000"/><rect x="116" y="166" width="8" height="4" style="fill:#000000"/><rect x="128" y="176" width="8" height="4" style="fill:#000000"/><rect x="194" y="64" width="8" height="4" style="fill:#7f7f7f"/><rect x="206" y="164" width="8" height="4" style="fill:#474747"/><rect x="214" y="80" width="16" height="2" style="fill:#474747"/><rect x="152" y="98" width="14" height="2" style="fill:#474747"/><rect x="174" y="88" width="14" height="2" style="fill:#808080"/><rect x="194" y="82" width="14" height="2" style="fill:#808080"/><rect x="110" y="82" width="6" height="4" style="fill:#000000"/><rect x="134" y="96" width="6" height="4" style="fill:#000000"/><rect x="162" y="52" width="12" height="2" style="fill:#7f7f7f"/><rect x="222" y="74" width="6" height="4" style="fill:#808080"/><rect x="134" y="58" width="10" height="2" style="fill:#7f7f7f"/><rect x="92" y="70" width="4" height="4" style="fill:#000000"/><rect x="100" y="66" width="8" height="2" style="fill:#7f7f7f"/><rect x="108" y="158" width="4" height="4" style="fill:#000000"/><rect x="116" y="82" width="8" height="2" style="fill:#808080"/><rect x="118" y="62" width="8" height="2" style="fill:#7f7f7f"/><rect x="126" y="88" width="8" height="2" style="fill:#808080"/><rect x="144" y="98" width="8" height="2" style="fill:#808080"/><rect x="178" y="178" width="8" height="2" style="fill:#474747"/><rect x="192" y="172" width="8" height="2" style="fill:#474747"/><rect x="222" y="78" width="8" height="2" style="fill:#474747"/><rect x="228" y="90" width="2" height="8" style="fill:#474747"/><rect x="106" y="76" width="6" height="2" style="fill:#808080"/><rect x="124" y="90" width="6" height="2" style="fill:#000000"/><rect x="146" y="100" width="2" height="6" style="fill:#474747"/><rect x="148" y="192" width="6" height="2" style="fill:#474747"/><rect x="158" y="188" width="6" height="2" style="fill:#474747"/><rect x="160" y="94" width="6" height="2" style="fill:#808080"/><rect x="160" y="96" width="6" height="2" style="fill:#474747"/><rect x="174" y="90" width="6" height="2" style="fill:#808080"/><rect x="174" y="92" width="6" height="2" style="fill:#474747"/><rect x="188" y="88" width="6" height="2" style="fill:#474747"/><rect x="194" y="84" width="6" height="2" style="fill:#808080"/><rect x="202" y="66" width="6" height="2" style="fill:#7f7f7f"/><rect x="202" y="84" width="6" height="2" style="fill:#474747"/><rect x="212" y="70" width="6" height="2" style="fill:#808080"/><rect x="214" y="164" width="6" height="2" style="fill:#474747"/><rect x="98" y="72" width="4" height="2" style="fill:#808080"/><rect x="102" y="76" width="4" height="2" style="fill:#000000"/><rect x="116" y="84" width="4" height="2" style="fill:#000000"/><rect x="120" y="84" width="4" height="2" style="fill:#808080"/><rect x="120" y="170" width="4" height="2" style="fill:#000000"/><rect x="130" y="90" width="4" height="2" style="fill:#808080"/><rect x="132" y="180" width="4" height="2" style="fill:#000000"/><rect x="138" y="186" width="4" height="2" style="fill:#000000"/><rect x="140" y="98" width="4" height="2" style="fill:#000000"/><rect x="168" y="184" width="4" height="2" style="fill:#474747"/><rect x="178" y="180" width="4" height="2" style="fill:#474747"/><rect x="184" y="58" width="4" height="2" style="fill:#7f7f7f"/><rect x="192" y="174" width="4" height="2" style="fill:#474747"/><rect x="194" y="62" width="4" height="2" style="fill:#7f7f7f"/><rect x="206" y="168" width="4" height="2" style="fill:#474747"/><rect x="92" y="86" width="2" height="2" style="fill:#000000"/><rect x="96" y="72" width="2" height="2" style="fill:#000000"/><rect x="100" y="154" width="2" height="2" style="fill:#000000"/><rect x="106" y="158" width="2" height="2" style="fill:#000000"/><rect x="110" y="78" width="2" height="2" style="fill:#808080"/><rect x="110" y="80" width="2" height="2" style="fill:#000000"/><rect x="110" y="162" width="2" height="2" style="fill:#000000"/><rect x="114" y="166" width="2" height="2" style="fill:#000000"/><rect x="116" y="62" width="2" height="2" style="fill:#7f7f7f"/><rect x="122" y="70" width="2" height="2" style="fill:#808080"/><rect x="122" y="172" width="2" height="2" style="fill:#000000"/><rect x="124" y="88" width="2" height="2" style="fill:#000000"/><rect x="126" y="176" width="2" height="2" style="fill:#000000"/><rect x="134" y="94" width="2" height="2" style="fill:#000000"/><rect x="134" y="182" width="2" height="2" style="fill:#000000"/><rect x="136" y="94" width="2" height="2" style="fill:#5c5c5c"/><rect x="138" y="94" width="2" height="2" style="fill:#808080"/><rect x="140" y="188" width="2" height="2" style="fill:#000000"/><rect x="146" y="106" width="2" height="2" style="fill:#464646"/><rect x="146" y="192" width="2" height="2" style="fill:#000000"/><rect x="148" y="194" width="2" height="2" style="fill:#474747"/><rect x="200" y="84" width="2" height="2" style="fill:#484848"/><rect x="212" y="80" width="2" height="2" style="fill:#808080"/><rect x="226" y="124" width="2" height="2" style="fill:#474747"/><rect x="228" y="76" width="2" height="2" style="fill:#474747"/></g></svg>