<!-- Created with Inkscape (http://www.inkscape.org/) --><svg xmlns:inkscape="http://www.inkscape.org/namespaces/inkscape" xmlns:sodipodi="http://sodipodi.sourceforge.net/DTD/sodipodi-0.dtd" xmlns="http://www.w3.org/2000/svg" xmlns:svg="http://www.w3.org/2000/svg" width="32" height="32" viewBox="0 0 32 32" version="1.1" id="svg1" inkscape:version="1.3 (0e150ed6c4, 2023-07-21)" sodipodi:docname="PLANTILLA.svg">
  <sodipodi:namedview id="namedview1" pagecolor="#b6b6b6" bordercolor="#666666" borderopacity="1.0" inkscape:showpageshadow="2" inkscape:pageopacity="0.0" inkscape:pagecheckerboard="true" inkscape:deskcolor="#d1d1d1" inkscape:document-units="px" showgrid="true" shape-rendering="crispEdges" inkscape:zoom="24.09375" inkscape:cx="16" inkscape:cy="16" inkscape:window-width="1920" inkscape:window-height="1009" inkscape:window-x="1912" inkscape:window-y="-8" inkscape:window-maximized="1" inkscape:current-layer="layer1">
    <inkscape:grid id="grid1" units="px" originx="0" originy="0" spacingx="1" spacingy="1" empcolor="#0099e5" empopacity="0.30196078" color="#0099e5" opacity="0.14901961" empspacing="4" dotted="false" gridanglex="30" gridanglez="30" visible="true"/>
  </sodipodi:namedview>
  <defs id="defs1"/>
  <g inkscape:label="Capa 1" inkscape:groupmode="layer" id="layer1"/>
<g inkscape:groupmode="layer" inkscape:label="Capa 1"><rect x="118" y="100" width="98" height="78" style="fill:#2b2b2b"/><rect x="122" y="70" width="80" height="20" style="fill:#808080"/><rect x="118" y="58" width="80" height="10" style="fill:#7f7f7f"/><rect x="120" y="178" width="50" height="6" style="fill:#2b2b2b"/><rect x="110" y="98" width="6" height="46" style="fill:#000000"/><rect x="156" y="96" width="66" height="4" style="fill:#2b2b2b"/><rect x="114" y="72" width="8" height="24" style="fill:#808080"/><rect x="216" y="100" width="4" height="44" style="fill:#2b2b2b"/><rect x="202" y="70" width="8" height="18" style="fill:#808080"/><rect x="108" y="60" width="10" height="12" style="fill:#7f7f7f"/><rect x="122" y="90" width="54" height="2" style="fill:#808080"/><rect x="150" y="56" width="48" height="2" style="fill:#7f7f7f"/><rect x="160" y="68" width="48" height="2" style="fill:#808080"/><rect x="108" y="72" width="2" height="46" style="fill:#000000"/><rect x="114" y="144" width="4" height="22" style="fill:#000000"/><rect x="118" y="68" width="42" height="2" style="fill:#7f7f7f"/><rect x="116" y="100" width="2" height="38" style="fill:#2b2b2b"/><rect x="170" y="178" width="38" height="2" style="fill:#2b2b2b"/><rect x="184" y="94" width="38" height="2" style="fill:#2b2b2b"/><rect x="122" y="94" width="36" height="2" style="fill:#2b2b2b"/><rect x="148" y="92" width="36" height="2" style="fill:#2b2b2b"/><rect x="176" y="90" width="34" height="2" style="fill:#2b2b2b"/><rect x="120" y="184" width="32" height="2" style="fill:#2b2b2b"/><rect x="210" y="80" width="8" height="8" style="fill:#808080"/><rect x="216" y="144" width="2" height="30" style="fill:#2b2b2b"/><rect x="122" y="92" width="26" height="2" style="fill:#808080"/><rect x="130" y="98" width="26" height="2" style="fill:#2b2b2b"/><rect x="110" y="88" width="4" height="10" style="fill:#000000"/><rect x="202" y="88" width="20" height="2" style="fill:#2b2b2b"/><rect x="106" y="64" width="2" height="18" style="fill:#000000"/><rect x="114" y="96" width="18" height="2" style="fill:#2b2b2b"/><rect x="166" y="94" width="18" height="2" style="fill:#2a2a2a"/><rect x="170" y="180" width="18" height="2" style="fill:#2b2b2b"/><rect x="110" y="72" width="4" height="8" style="fill:#808080"/><rect x="140" y="96" width="16" height="2" style="fill:#2a2a2a"/><rect x="116" y="98" width="14" height="2" style="fill:#2a2a2a"/><rect x="120" y="186" width="14" height="2" style="fill:#2b2b2b"/><rect x="182" y="54" width="14" height="2" style="fill:#7f7f7f"/><rect x="194" y="92" width="14" height="2" style="fill:#2a2a2a"/><rect x="208" y="92" width="14" height="2" style="fill:#2b2b2b"/><rect x="220" y="100" width="2" height="14" style="fill:#2b2b2b"/><rect x="198" y="62" width="4" height="6" style="fill:#7f7f7f"/><rect x="112" y="144" width="2" height="10" style="fill:#000000"/><rect x="116" y="166" width="2" height="10" style="fill:#000000"/><rect x="110" y="80" width="2" height="8" style="fill:#000000"/><rect x="112" y="80" width="2" height="8" style="fill:#808080"/><rect x="186" y="92" width="8" height="2" style="fill:#292929"/><rect x="210" y="76" width="4" height="4" style="fill:#808080"/><rect x="212" y="90" width="8" height="2" style="fill:#292929"/><rect x="116" y="138" width="2" height="6" style="fill:#000000"/><rect x="118" y="180" width="2" height="6" style="fill:#000000"/><rect x="134" y="96" width="6" height="2" style="fill:#292929"/><rect x="218" y="82" width="2" height="6" style="fill:#808080"/><rect x="106" y="60" width="2" height="4" style="fill:#7f7f7f"/><rect x="118" y="70" width="4" height="2" style="fill:#7f7f7f"/><rect x="202" y="64" width="2" height="4" style="fill:#7f7f7f"/><rect x="106" y="82" width="2" height="2" style="fill:#000000"/><rect x="118" y="178" width="2" height="2" style="fill:#2b2b2b"/><rect x="132" y="96" width="2" height="2" style="fill:#2a2a2a"/><rect x="152" y="184" width="2" height="2" style="fill:#2b2b2b"/><rect x="158" y="94" width="2" height="2" style="fill:#2a2a2a"/><rect x="160" y="94" width="2" height="2" style="fill:#292929"/><rect x="162" y="94" width="2" height="2" style="fill:#282828"/><rect x="164" y="94" width="2" height="2" style="fill:#292929"/><rect x="170" y="182" width="2" height="2" style="fill:#424242"/><rect x="184" y="92" width="2" height="2" style="fill:#2a2a2a"/><rect x="188" y="180" width="2" height="2" style="fill:#2d2d2d"/><rect x="198" y="60" width="2" height="2" style="fill:#7f7f7f"/><rect x="204" y="66" width="2" height="2" style="fill:#7f7f7f"/><rect x="210" y="74" width="2" height="2" style="fill:#808080"/><rect x="210" y="90" width="2" height="2" style="fill:#2a2a2a"/><rect x="214" y="78" width="2" height="2" style="fill:#808080"/><rect x="220" y="86" width="2" height="2" style="fill:#808080"/><rect x="220" y="90" width="2" height="2" style="fill:#2a2a2a"/></g></svg>