<!-- Created with Inkscape (http://www.inkscape.org/) --><svg xmlns:inkscape="http://www.inkscape.org/namespaces/inkscape" xmlns:sodipodi="http://sodipodi.sourceforge.net/DTD/sodipodi-0.dtd" xmlns="http://www.w3.org/2000/svg" xmlns:svg="http://www.w3.org/2000/svg" width="32" height="32" viewBox="0 0 32 32" version="1.1" id="svg1" inkscape:version="1.3 (0e150ed6c4, 2023-07-21)" sodipodi:docname="PLANTILLA.svg">
  <sodipodi:namedview id="namedview1" pagecolor="#b6b6b6" bordercolor="#666666" borderopacity="1.0" inkscape:showpageshadow="2" inkscape:pageopacity="0.0" inkscape:pagecheckerboard="true" inkscape:deskcolor="#d1d1d1" inkscape:document-units="px" showgrid="true" shape-rendering="crispEdges" inkscape:zoom="24.09375" inkscape:cx="16" inkscape:cy="16" inkscape:window-width="1920" inkscape:window-height="1009" inkscape:window-x="1912" inkscape:window-y="-8" inkscape:window-maximized="1" inkscape:current-layer="layer1">
    <inkscape:grid id="grid1" units="px" originx="0" originy="0" spacingx="1" spacingy="1" empcolor="#0099e5" empopacity="0.30196078" color="#0099e5" opacity="0.14901961" empspacing="4" dotted="false" gridanglex="30" gridanglez="30" visible="true"/>
  </sodipodi:namedview>
  <defs id="defs1"/>
  <g inkscape:label="Capa 1" inkscape:groupmode="layer" id="layer1"/>
<g inkscape:groupmode="layer" inkscape:label="Capa 1"><rect x="98" y="98" width="92" height="74" style="fill:#000000"/><rect x="122" y="70" width="80" height="18" style="fill:#808080"/><rect x="198" y="90" width="18" height="56" style="fill:#535353"/><rect x="122" y="60" width="80" height="8" style="fill:#7f7f7f"/><rect x="146" y="172" width="42" height="12" style="fill:#000000"/><rect x="92" y="90" width="52" height="8" style="fill:#000000"/><rect x="190" y="132" width="8" height="46" style="fill:#535353"/><rect x="156" y="88" width="40" height="6" style="fill:#808080"/><rect x="106" y="72" width="16" height="14" style="fill:#808080"/><rect x="128" y="56" width="42" height="4" style="fill:#7f7f7f"/><rect x="120" y="172" width="26" height="6" style="fill:#000000"/><rect x="94" y="98" width="4" height="36" style="fill:#000000"/><rect x="198" y="146" width="8" height="18" style="fill:#535353"/><rect x="208" y="78" width="12" height="12" style="fill:#535353"/><rect x="160" y="68" width="56" height="2" style="fill:#808080"/><rect x="92" y="86" width="26" height="4" style="fill:#000000"/><rect x="144" y="94" width="26" height="4" style="fill:#000000"/><rect x="112" y="68" width="48" height="2" style="fill:#7f7f7f"/><rect x="164" y="184" width="24" height="4" style="fill:#000000"/><rect x="202" y="62" width="16" height="6" style="fill:#7f7f7f"/><rect x="194" y="110" width="4" height="22" style="fill:#535353"/><rect x="202" y="70" width="8" height="8" style="fill:#808080"/><rect x="96" y="78" width="10" height="6" style="fill:#808080"/><rect x="216" y="90" width="2" height="30" style="fill:#535353"/><rect x="96" y="134" width="2" height="28" style="fill:#000000"/><rect x="192" y="96" width="4" height="14" style="fill:#545454"/><rect x="132" y="88" width="24" height="2" style="fill:#808080"/><rect x="170" y="94" width="24" height="2" style="fill:#808080"/><rect x="190" y="98" width="2" height="24" style="fill:#000000"/><rect x="212" y="72" width="8" height="6" style="fill:#535353"/><rect x="132" y="54" width="22" height="2" style="fill:#7f7f7f"/><rect x="206" y="146" width="4" height="10" style="fill:#535353"/><rect x="202" y="84" width="6" height="6" style="fill:#535353"/><rect x="104" y="172" width="16" height="2" style="fill:#000000"/><rect x="130" y="178" width="16" height="2" style="fill:#000000"/><rect x="170" y="58" width="16" height="2" style="fill:#7f7f7f"/><rect x="188" y="180" width="4" height="8" style="fill:#535353"/><rect x="108" y="70" width="14" height="2" style="fill:#7f7f7f"/><rect x="174" y="188" width="14" height="2" style="fill:#000000"/><rect x="92" y="84" width="12" height="2" style="fill:#000000"/><rect x="116" y="64" width="6" height="4" style="fill:#7f7f7f"/><rect x="118" y="88" width="12" height="2" style="fill:#000000"/><rect x="144" y="90" width="12" height="2" style="fill:#808080"/><rect x="144" y="92" width="12" height="2" style="fill:#000000"/><rect x="170" y="96" width="12" height="2" style="fill:#000000"/><rect x="192" y="110" width="2" height="12" style="fill:#545454"/><rect x="196" y="98" width="2" height="12" style="fill:#535353"/><rect x="198" y="164" width="6" height="4" style="fill:#535353"/><rect x="182" y="96" width="10" height="2" style="fill:#808080"/><rect x="190" y="122" width="2" height="10" style="fill:#545454"/><rect x="192" y="122" width="2" height="10" style="fill:#535353"/><rect x="92" y="98" width="2" height="8" style="fill:#000000"/><rect x="102" y="74" width="4" height="4" style="fill:#808080"/><rect x="112" y="174" width="8" height="2" style="fill:#000000"/><rect x="138" y="180" width="8" height="2" style="fill:#000000"/><rect x="156" y="184" width="8" height="2" style="fill:#000000"/><rect x="192" y="178" width="4" height="4" style="fill:#535353"/><rect x="202" y="78" width="4" height="4" style="fill:#808080"/><rect x="210" y="146" width="4" height="4" style="fill:#535353"/><rect x="216" y="68" width="4" height="4" style="fill:#535353"/><rect x="182" y="190" width="6" height="2" style="fill:#000000"/><rect x="188" y="172" width="2" height="6" style="fill:#000000"/><rect x="196" y="92" width="2" height="6" style="fill:#545454"/><rect x="198" y="168" width="2" height="6" style="fill:#535353"/><rect x="92" y="82" width="4" height="2" style="fill:#808080"/><rect x="118" y="86" width="4" height="2" style="fill:#808080"/><rect x="134" y="52" width="4" height="2" style="fill:#7f7f7f"/><rect x="188" y="188" width="2" height="4" style="fill:#535353"/><rect x="196" y="88" width="4" height="2" style="fill:#808080"/><rect x="204" y="82" width="4" height="2" style="fill:#535353"/><rect x="206" y="156" width="2" height="4" style="fill:#535353"/><rect x="210" y="70" width="4" height="2" style="fill:#808080"/><rect x="218" y="62" width="2" height="4" style="fill:#7f7f7f"/><rect x="92" y="106" width="2" height="2" style="fill:#000000"/><rect x="94" y="80" width="2" height="2" style="fill:#808080"/><rect x="100" y="76" width="2" height="2" style="fill:#808080"/><rect x="102" y="172" width="2" height="2" style="fill:#000000"/><rect x="104" y="84" width="2" height="2" style="fill:#595959"/><rect x="114" y="66" width="2" height="2" style="fill:#7f7f7f"/><rect x="120" y="62" width="2" height="2" style="fill:#7f7f7f"/><rect x="126" y="58" width="2" height="2" style="fill:#7f7f7f"/><rect x="130" y="88" width="2" height="2" style="fill:#7e7e7e"/><rect x="186" y="58" width="2" height="2" style="fill:#4f4f4f"/><rect x="188" y="178" width="2" height="2" style="fill:#3e3e3e"/><rect x="190" y="178" width="2" height="2" style="fill:#535353"/><rect x="192" y="182" width="2" height="2" style="fill:#535353"/><rect x="194" y="94" width="2" height="2" style="fill:#545454"/><rect x="196" y="90" width="2" height="2" style="fill:#808080"/><rect x="200" y="88" width="2" height="2" style="fill:#535353"/><rect x="200" y="168" width="2" height="2" style="fill:#535353"/><rect x="202" y="60" width="2" height="2" style="fill:#7f7f7f"/><rect x="202" y="82" width="2" height="2" style="fill:#808080"/><rect x="206" y="78" width="2" height="2" style="fill:#808080"/><rect x="206" y="80" width="2" height="2" style="fill:#535353"/><rect x="210" y="72" width="2" height="2" style="fill:#808080"/><rect x="210" y="74" width="2" height="2" style="fill:#646464"/><rect x="210" y="76" width="2" height="2" style="fill:#535353"/><rect x="210" y="150" width="2" height="2" style="fill:#535353"/><rect x="214" y="70" width="2" height="2" style="fill:#535353"/><rect x="216" y="120" width="2" height="2" style="fill:#484848"/><rect x="218" y="66" width="2" height="2" style="fill:#535353"/></g></svg>