<!-- Created with Inkscape (http://www.inkscape.org/) --><svg xmlns:inkscape="http://www.inkscape.org/namespaces/inkscape" xmlns:sodipodi="http://sodipodi.sourceforge.net/DTD/sodipodi-0.dtd" xmlns="http://www.w3.org/2000/svg" xmlns:svg="http://www.w3.org/2000/svg" width="32" height="32" viewBox="0 0 32 32" version="1.1" id="svg1" inkscape:version="1.3 (0e150ed6c4, 2023-07-21)" sodipodi:docname="PLANTILLA.svg">
  <sodipodi:namedview id="namedview1" pagecolor="#b6b6b6" bordercolor="#666666" borderopacity="1.0" inkscape:showpageshadow="2" inkscape:pageopacity="0.0" inkscape:pagecheckerboard="true" inkscape:deskcolor="#d1d1d1" inkscape:document-units="px" showgrid="true" shape-rendering="crispEdges" inkscape:zoom="24.09375" inkscape:cx="16" inkscape:cy="16" inkscape:window-width="1920" inkscape:window-height="1009" inkscape:window-x="1912" inkscape:window-y="-8" inkscape:window-maximized="1" inkscape:current-layer="layer1">
    <inkscape:grid id="grid1" units="px" originx="0" originy="0" spacingx="1" spacingy="1" empcolor="#0099e5" empopacity="0.30196078" color="#0099e5" opacity="0.14901961" empspacing="4" dotted="false" gridanglex="30" gridanglez="30" visible="true"/>
  </sodipodi:namedview>
  <defs id="defs1"/>
  <g inkscape:label="Capa 1" inkscape:groupmode="layer" id="layer1"/>
<g inkscape:groupmode="layer" inkscape:label="Capa 1"><rect x="96" y="98" width="90" height="72" style="fill:#000000"/><rect x="122" y="70" width="78" height="18" style="fill:#808080"/><rect x="194" y="92" width="22" height="56" style="fill:#535353"/><rect x="124" y="60" width="74" height="8" style="fill:#7f7f7f"/><rect x="138" y="170" width="46" height="12" style="fill:#000000"/><rect x="186" y="126" width="8" height="56" style="fill:#535353"/><rect x="92" y="88" width="40" height="10" style="fill:#000000"/><rect x="154" y="88" width="40" height="6" style="fill:#808080"/><rect x="100" y="74" width="22" height="10" style="fill:#808080"/><rect x="194" y="148" width="10" height="20" style="fill:#535353"/><rect x="216" y="70" width="4" height="50" style="fill:#535353"/><rect x="130" y="56" width="42" height="4" style="fill:#7f7f7f"/><rect x="160" y="182" width="24" height="6" style="fill:#000000"/><rect x="116" y="170" width="22" height="6" style="fill:#000000"/><rect x="132" y="92" width="22" height="6" style="fill:#000000"/><rect x="204" y="82" width="12" height="10" style="fill:#535353"/><rect x="160" y="68" width="58" height="2" style="fill:#808080"/><rect x="110" y="68" width="50" height="2" style="fill:#7f7f7f"/><rect x="94" y="98" width="2" height="48" style="fill:#000000"/><rect x="198" y="64" width="22" height="4" style="fill:#7f7f7f"/><rect x="90" y="84" width="20" height="4" style="fill:#000000"/><rect x="190" y="106" width="4" height="20" style="fill:#535353"/><rect x="200" y="70" width="10" height="8" style="fill:#808080"/><rect x="204" y="148" width="8" height="8" style="fill:#535353"/><rect x="164" y="94" width="28" height="2" style="fill:#808080"/><rect x="134" y="54" width="24" height="2" style="fill:#7f7f7f"/><rect x="142" y="88" width="12" height="4" style="fill:#808080"/><rect x="220" y="66" width="2" height="24" style="fill:#535353"/><rect x="92" y="98" width="2" height="22" style="fill:#000000"/><rect x="154" y="96" width="22" height="2" style="fill:#000000"/><rect x="184" y="172" width="2" height="20" style="fill:#535353"/><rect x="186" y="106" width="4" height="10" style="fill:#545454"/><rect x="104" y="72" width="18" height="2" style="fill:#808080"/><rect x="210" y="76" width="6" height="6" style="fill:#535353"/><rect x="216" y="120" width="2" height="18" style="fill:#535353"/><rect x="168" y="188" width="16" height="2" style="fill:#000000"/><rect x="188" y="98" width="4" height="8" style="fill:#545454"/><rect x="194" y="168" width="4" height="8" style="fill:#535353"/><rect x="102" y="170" width="14" height="2" style="fill:#000000"/><rect x="108" y="70" width="14" height="2" style="fill:#7f7f7f"/><rect x="124" y="176" width="14" height="2" style="fill:#000000"/><rect x="146" y="182" width="14" height="2" style="fill:#000000"/><rect x="172" y="58" width="14" height="2" style="fill:#7f7f7f"/><rect x="176" y="96" width="14" height="2" style="fill:#808080"/><rect x="198" y="62" width="14" height="2" style="fill:#7f7f7f"/><rect x="94" y="78" width="6" height="4" style="fill:#808080"/><rect x="110" y="84" width="12" height="2" style="fill:#808080"/><rect x="110" y="86" width="12" height="2" style="fill:#000000"/><rect x="118" y="64" width="6" height="4" style="fill:#7f7f7f"/><rect x="198" y="88" width="6" height="4" style="fill:#535353"/><rect x="200" y="78" width="6" height="4" style="fill:#808080"/><rect x="204" y="156" width="4" height="6" style="fill:#535353"/><rect x="90" y="82" width="10" height="2" style="fill:#000000"/><rect x="132" y="88" width="10" height="2" style="fill:#808080"/><rect x="132" y="90" width="10" height="2" style="fill:#000000"/><rect x="154" y="94" width="10" height="2" style="fill:#000000"/><rect x="186" y="116" width="2" height="10" style="fill:#545454"/><rect x="188" y="116" width="2" height="10" style="fill:#535353"/><rect x="216" y="138" width="2" height="10" style="fill:#525252"/><rect x="176" y="190" width="8" height="2" style="fill:#000000"/><rect x="186" y="182" width="4" height="4" style="fill:#535353"/><rect x="192" y="98" width="2" height="8" style="fill:#535353"/><rect x="210" y="70" width="4" height="4" style="fill:#808080"/><rect x="90" y="88" width="2" height="6" style="fill:#000000"/><rect x="110" y="172" width="6" height="2" style="fill:#000000"/><rect x="132" y="178" width="6" height="2" style="fill:#000000"/><rect x="138" y="52" width="6" height="2" style="fill:#7f7f7f"/><rect x="154" y="184" width="6" height="2" style="fill:#000000"/><rect x="90" y="80" width="4" height="2" style="fill:#808080"/><rect x="114" y="66" width="4" height="2" style="fill:#7f7f7f"/><rect x="120" y="62" width="4" height="2" style="fill:#7f7f7f"/><rect x="186" y="100" width="2" height="4" style="fill:#000000"/><rect x="186" y="186" width="2" height="4" style="fill:#535353"/><rect x="190" y="96" width="4" height="2" style="fill:#545454"/><rect x="194" y="88" width="4" height="2" style="fill:#808080"/><rect x="198" y="168" width="4" height="2" style="fill:#535353"/><rect x="200" y="82" width="4" height="2" style="fill:#808080"/><rect x="200" y="86" width="4" height="2" style="fill:#535353"/><rect x="206" y="80" width="4" height="2" style="fill:#535353"/><rect x="212" y="74" width="4" height="2" style="fill:#535353"/><rect x="212" y="148" width="2" height="4" style="fill:#535353"/><rect x="98" y="76" width="2" height="2" style="fill:#808080"/><rect x="108" y="172" width="2" height="2" style="fill:#000000"/><rect x="128" y="58" width="2" height="2" style="fill:#7f7f7f"/><rect x="136" y="52" width="2" height="2" style="fill:#7e7e7e"/><rect x="182" y="192" width="2" height="2" style="fill:#000000"/><rect x="184" y="170" width="2" height="2" style="fill:#000000"/><rect x="186" y="98" width="2" height="2" style="fill:#808080"/><rect x="186" y="104" width="2" height="2" style="fill:#0d0d0d"/><rect x="190" y="182" width="2" height="2" style="fill:#535353"/><rect x="192" y="94" width="2" height="2" style="fill:#545454"/><rect x="194" y="90" width="2" height="2" style="fill:#808080"/><rect x="194" y="176" width="2" height="2" style="fill:#535353"/><rect x="196" y="90" width="2" height="2" style="fill:#535353"/><rect x="198" y="60" width="2" height="2" style="fill:#7f7f7f"/><rect x="198" y="170" width="2" height="2" style="fill:#535353"/><rect x="200" y="84" width="2" height="2" style="fill:#808080"/><rect x="202" y="84" width="2" height="2" style="fill:#535353"/><rect x="204" y="162" width="2" height="2" style="fill:#535353"/><rect x="206" y="78" width="2" height="2" style="fill:#808080"/><rect x="208" y="78" width="2" height="2" style="fill:#535353"/><rect x="208" y="156" width="2" height="2" style="fill:#535353"/><rect x="210" y="74" width="2" height="2" style="fill:#808080"/><rect x="214" y="70" width="2" height="2" style="fill:#808080"/><rect x="214" y="72" width="2" height="2" style="fill:#535353"/><rect x="214" y="148" width="2" height="2" style="fill:#525252"/><rect x="218" y="68" width="2" height="2" style="fill:#535353"/><rect x="218" y="120" width="2" height="2" style="fill:#535353"/><rect x="220" y="64" width="2" height="2" style="fill:#7f7f7f"/></g></svg>