<!-- Created with Inkscape (http://www.inkscape.org/) --><svg xmlns:inkscape="http://www.inkscape.org/namespaces/inkscape" xmlns:sodipodi="http://sodipodi.sourceforge.net/DTD/sodipodi-0.dtd" xmlns="http://www.w3.org/2000/svg" xmlns:svg="http://www.w3.org/2000/svg" width="32" height="32" viewBox="0 0 32 32" version="1.1" id="svg1" inkscape:version="1.3 (0e150ed6c4, 2023-07-21)" sodipodi:docname="PLANTILLA.svg">
  <sodipodi:namedview id="namedview1" pagecolor="#b6b6b6" bordercolor="#666666" borderopacity="1.0" inkscape:showpageshadow="2" inkscape:pageopacity="0.0" inkscape:pagecheckerboard="true" inkscape:deskcolor="#d1d1d1" inkscape:document-units="px" showgrid="true" shape-rendering="crispEdges" inkscape:zoom="24.09375" inkscape:cx="16" inkscape:cy="16" inkscape:window-width="1920" inkscape:window-height="1009" inkscape:window-x="1912" inkscape:window-y="-8" inkscape:window-maximized="1" inkscape:current-layer="layer1">
    <inkscape:grid id="grid1" units="px" originx="0" originy="0" spacingx="1" spacingy="1" empcolor="#0099e5" empopacity="0.30196078" color="#0099e5" opacity="0.14901961" empspacing="4" dotted="false" gridanglex="30" gridanglez="30" visible="true"/>
  </sodipodi:namedview>
  <defs id="defs1"/>
  <g inkscape:label="Capa 1" inkscape:groupmode="layer" id="layer1"/>
<g inkscape:groupmode="layer" inkscape:label="Capa 1"><rect x="110" y="102" width="94" height="82" style="fill:#151515"/><rect x="110" y="72" width="100" height="20" style="fill:#808080"/><rect x="114" y="56" width="90" height="12" style="fill:#7f7f7f"/><rect x="104" y="92" width="110" height="2" style="fill:#151515"/><rect x="160" y="68" width="48" height="4" style="fill:#808080"/><rect x="120" y="100" width="90" height="2" style="fill:#141414"/><rect x="204" y="102" width="4" height="42" style="fill:#151515"/><rect x="106" y="102" width="4" height="34" style="fill:#151515"/><rect x="110" y="68" width="50" height="2" style="fill:#7f7f7f"/><rect x="122" y="70" width="38" height="2" style="fill:#808080"/><rect x="204" y="144" width="2" height="34" style="fill:#151515"/><rect x="108" y="136" width="2" height="32" style="fill:#151515"/><rect x="210" y="126" width="2" height="32" style="fill:#151515"/><rect x="212" y="96" width="2" height="28" style="fill:#151515"/><rect x="206" y="144" width="2" height="24" style="fill:#141414"/><rect x="208" y="160" width="2" height="24" style="fill:#151515"/><rect x="106" y="82" width="4" height="10" style="fill:#808080"/><rect x="208" y="112" width="2" height="20" style="fill:#141414"/><rect x="152" y="98" width="18" height="2" style="fill:#131313"/><rect x="158" y="96" width="18" height="2" style="fill:#121212"/><rect x="134" y="98" width="16" height="2" style="fill:#131313"/><rect x="178" y="96" width="16" height="2" style="fill:#121212"/><rect x="186" y="98" width="16" height="2" style="fill:#131313"/><rect x="104" y="100" width="14" height="2" style="fill:#141414"/><rect x="110" y="98" width="14" height="2" style="fill:#131313"/><rect x="136" y="96" width="14" height="2" style="fill:#121212"/><rect x="150" y="94" width="14" height="2" style="fill:#101010"/><rect x="210" y="78" width="2" height="14" style="fill:#808080"/><rect x="110" y="70" width="12" height="2" style="fill:#7f7f7f"/><rect x="112" y="96" width="12" height="2" style="fill:#121212"/><rect x="126" y="94" width="12" height="2" style="fill:#101010"/><rect x="176" y="94" width="12" height="2" style="fill:#101010"/><rect x="198" y="94" width="10" height="2" style="fill:#101010"/><rect x="204" y="58" width="2" height="10" style="fill:#7f7f7f"/><rect x="208" y="132" width="2" height="10" style="fill:#131313"/><rect x="210" y="98" width="2" height="10" style="fill:#131313"/><rect x="104" y="96" width="8" height="2" style="fill:#111111"/><rect x="204" y="96" width="8" height="2" style="fill:#121212"/><rect x="210" y="114" width="2" height="8" style="fill:#131313"/><rect x="106" y="94" width="6" height="2" style="fill:#101010"/><rect x="108" y="76" width="2" height="6" style="fill:#808080"/><rect x="112" y="62" width="2" height="6" style="fill:#7f7f7f"/><rect x="126" y="98" width="6" height="2" style="fill:#131313"/><rect x="204" y="98" width="6" height="2" style="fill:#131313"/><rect x="204" y="178" width="2" height="6" style="fill:#141414"/><rect x="208" y="150" width="2" height="6" style="fill:#131313"/><rect x="210" y="108" width="2" height="6" style="fill:#121212"/><rect x="212" y="86" width="2" height="6" style="fill:#808080"/><rect x="106" y="98" width="4" height="2" style="fill:#141414"/><rect x="114" y="94" width="4" height="2" style="fill:#101010"/><rect x="122" y="94" width="4" height="2" style="fill:#0f0f0f"/><rect x="128" y="96" width="4" height="2" style="fill:#111111"/><rect x="142" y="94" width="4" height="2" style="fill:#0f0f0f"/><rect x="154" y="96" width="4" height="2" style="fill:#111111"/><rect x="166" y="94" width="4" height="2" style="fill:#101010"/><rect x="174" y="98" width="4" height="2" style="fill:#141414"/><rect x="178" y="98" width="4" height="2" style="fill:#131313"/><rect x="182" y="98" width="4" height="2" style="fill:#141414"/><rect x="188" y="94" width="4" height="2" style="fill:#0f0f0f"/><rect x="194" y="94" width="4" height="2" style="fill:#0f0f0f"/><rect x="196" y="96" width="4" height="2" style="fill:#121212"/><rect x="200" y="96" width="4" height="2" style="fill:#111111"/><rect x="206" y="64" width="2" height="4" style="fill:#7f7f7f"/><rect x="206" y="168" width="2" height="4" style="fill:#131313"/><rect x="206" y="176" width="2" height="4" style="fill:#131313"/><rect x="208" y="94" width="4" height="2" style="fill:#0f0f0f"/><rect x="208" y="106" width="2" height="4" style="fill:#141414"/><rect x="208" y="146" width="2" height="4" style="fill:#121212"/><rect x="208" y="156" width="2" height="4" style="fill:#141414"/><rect x="210" y="122" width="2" height="4" style="fill:#141414"/><rect x="104" y="90" width="2" height="2" style="fill:#808080"/><rect x="104" y="94" width="2" height="2" style="fill:#0f0f0f"/><rect x="104" y="98" width="2" height="2" style="fill:#131313"/><rect x="112" y="94" width="2" height="2" style="fill:#0f0f0f"/><rect x="118" y="94" width="2" height="2" style="fill:#0f0f0f"/><rect x="118" y="100" width="2" height="2" style="fill:#151515"/><rect x="120" y="94" width="2" height="2" style="fill:#101010"/><rect x="124" y="96" width="2" height="2" style="fill:#111111"/><rect x="124" y="98" width="2" height="2" style="fill:#141414"/><rect x="126" y="96" width="2" height="2" style="fill:#121212"/><rect x="132" y="96" width="2" height="2" style="fill:#121212"/><rect x="132" y="98" width="2" height="2" style="fill:#141414"/><rect x="134" y="96" width="2" height="2" style="fill:#111111"/><rect x="138" y="94" width="2" height="2" style="fill:#0f0f0f"/><rect x="140" y="94" width="2" height="2" style="fill:#101010"/><rect x="146" y="94" width="2" height="2" style="fill:#101010"/><rect x="148" y="94" width="2" height="2" style="fill:#0f0f0f"/><rect x="150" y="96" width="2" height="2" style="fill:#111111"/><rect x="150" y="98" width="2" height="2" style="fill:#141414"/><rect x="152" y="96" width="2" height="2" style="fill:#121212"/><rect x="164" y="94" width="2" height="2" style="fill:#0f0f0f"/><rect x="170" y="94" width="2" height="2" style="fill:#0f0f0f"/><rect x="170" y="98" width="2" height="2" style="fill:#141414"/><rect x="172" y="94" width="2" height="2" style="fill:#101010"/><rect x="172" y="98" width="2" height="2" style="fill:#131313"/><rect x="174" y="94" width="2" height="2" style="fill:#0f0f0f"/><rect x="176" y="96" width="2" height="2" style="fill:#111111"/><rect x="192" y="94" width="2" height="2" style="fill:#101010"/><rect x="194" y="96" width="2" height="2" style="fill:#111111"/><rect x="202" y="98" width="2" height="2" style="fill:#141414"/><rect x="206" y="172" width="2" height="2" style="fill:#141414"/><rect x="206" y="174" width="2" height="2" style="fill:#121212"/><rect x="206" y="180" width="2" height="2" style="fill:#111111"/><rect x="206" y="182" width="2" height="2" style="fill:#121212"/><rect x="208" y="102" width="2" height="2" style="fill:#141414"/><rect x="208" y="104" width="2" height="2" style="fill:#151515"/><rect x="208" y="110" width="2" height="2" style="fill:#151515"/><rect x="208" y="142" width="2" height="2" style="fill:#121212"/><rect x="208" y="144" width="2" height="2" style="fill:#131313"/><rect x="212" y="94" width="2" height="2" style="fill:#121212"/></g></svg>