<!-- Created with Inkscape (http://www.inkscape.org/) --><svg xmlns:inkscape="http://www.inkscape.org/namespaces/inkscape" xmlns:sodipodi="http://sodipodi.sourceforge.net/DTD/sodipodi-0.dtd" xmlns="http://www.w3.org/2000/svg" xmlns:svg="http://www.w3.org/2000/svg" width="32" height="32" viewBox="0 0 32 32" version="1.1" id="svg1" inkscape:version="1.3 (0e150ed6c4, 2023-07-21)" sodipodi:docname="PLANTILLA.svg">
  <sodipodi:namedview id="namedview1" pagecolor="#b6b6b6" bordercolor="#666666" borderopacity="1.0" inkscape:showpageshadow="2" inkscape:pageopacity="0.0" inkscape:pagecheckerboard="true" inkscape:deskcolor="#d1d1d1" inkscape:document-units="px" showgrid="true" shape-rendering="crispEdges" inkscape:zoom="24.09375" inkscape:cx="16" inkscape:cy="16" inkscape:window-width="1920" inkscape:window-height="1009" inkscape:window-x="1912" inkscape:window-y="-8" inkscape:window-maximized="1" inkscape:current-layer="layer1">
    <inkscape:grid id="grid1" units="px" originx="0" originy="0" spacingx="1" spacingy="1" empcolor="#0099e5" empopacity="0.30196078" color="#0099e5" opacity="0.14901961" empspacing="4" dotted="false" gridanglex="30" gridanglez="30" visible="true"/>
  </sodipodi:namedview>
  <defs id="defs1"/>
  <g inkscape:label="Capa 1" inkscape:groupmode="layer" id="layer1"/>
<g inkscape:groupmode="layer" inkscape:label="Capa 1"><rect x="96" y="100" width="80" height="66" style="fill:#000000"/><rect x="178" y="100" width="30" height="64" style="fill:#525252"/><rect x="124" y="70" width="74" height="18" style="fill:#808080"/><rect x="132" y="166" width="44" height="14" style="fill:#000000"/><rect x="208" y="78" width="14" height="40" style="fill:#525252"/><rect x="126" y="60" width="68" height="8" style="fill:#7f7f7f"/><rect x="90" y="88" width="42" height="12" style="fill:#000000"/><rect x="176" y="164" width="16" height="16" style="fill:#525252"/><rect x="100" y="72" width="24" height="10" style="fill:#808080"/><rect x="148" y="88" width="40" height="6" style="fill:#808080"/><rect x="154" y="180" width="22" height="8" style="fill:#000000"/><rect x="194" y="88" width="14" height="12" style="fill:#525252"/><rect x="134" y="56" width="40" height="4" style="fill:#7f7f7f"/><rect x="208" y="118" width="8" height="20" style="fill:#525252"/><rect x="132" y="94" width="24" height="6" style="fill:#000000"/><rect x="198" y="68" width="14" height="10" style="fill:#808080"/><rect x="92" y="100" width="4" height="34" style="fill:#000000"/><rect x="110" y="166" width="22" height="6" style="fill:#000000"/><rect x="90" y="82" width="18" height="6" style="fill:#000000"/><rect x="108" y="68" width="52" height="2" style="fill:#7f7f7f"/><rect x="214" y="138" width="6" height="14" style="fill:#515151"/><rect x="194" y="64" width="20" height="4" style="fill:#7f7f7f"/><rect x="222" y="70" width="2" height="40" style="fill:#525252"/><rect x="160" y="68" width="38" height="2" style="fill:#808080"/><rect x="164" y="94" width="18" height="4" style="fill:#808080"/><rect x="176" y="128" width="2" height="36" style="fill:#525252"/><rect x="176" y="180" width="8" height="8" style="fill:#525252"/><rect x="192" y="164" width="8" height="8" style="fill:#525252"/><rect x="218" y="124" width="4" height="14" style="fill:#515151"/><rect x="94" y="134" width="2" height="26" style="fill:#000000"/><rect x="138" y="54" width="26" height="2" style="fill:#7f7f7f"/><rect x="176" y="100" width="2" height="26" style="fill:#000000"/><rect x="164" y="188" width="12" height="4" style="fill:#000000"/><rect x="182" y="96" width="12" height="4" style="fill:#525252"/><rect x="208" y="138" width="4" height="12" style="fill:#525252"/><rect x="116" y="64" width="10" height="4" style="fill:#7f7f7f"/><rect x="122" y="172" width="10" height="4" style="fill:#000000"/><rect x="144" y="180" width="10" height="4" style="fill:#000000"/><rect x="104" y="70" width="18" height="2" style="fill:#7f7f7f"/><rect x="202" y="82" width="6" height="6" style="fill:#525252"/><rect x="212" y="68" width="6" height="6" style="fill:#808080"/><rect x="92" y="76" width="8" height="4" style="fill:#808080"/><rect x="108" y="82" width="16" height="2" style="fill:#808080"/><rect x="108" y="84" width="8" height="4" style="fill:#000000"/><rect x="132" y="88" width="16" height="2" style="fill:#808080"/><rect x="132" y="90" width="8" height="4" style="fill:#000000"/><rect x="156" y="96" width="8" height="4" style="fill:#000000"/><rect x="198" y="78" width="8" height="4" style="fill:#808080"/><rect x="210" y="150" width="4" height="8" style="fill:#515151"/><rect x="214" y="74" width="8" height="4" style="fill:#525252"/><rect x="224" y="68" width="2" height="16" style="fill:#525252"/><rect x="216" y="118" width="2" height="14" style="fill:#525252"/><rect x="88" y="80" width="12" height="2" style="fill:#000000"/><rect x="142" y="52" width="12" height="2" style="fill:#7f7f7f"/><rect x="188" y="92" width="6" height="4" style="fill:#525252"/><rect x="100" y="166" width="10" height="2" style="fill:#000000"/><rect x="174" y="58" width="10" height="2" style="fill:#7f7f7f"/><rect x="194" y="62" width="10" height="2" style="fill:#7f7f7f"/><rect x="214" y="66" width="10" height="2" style="fill:#7f7f7f"/><rect x="90" y="100" width="2" height="8" style="fill:#000000"/><rect x="116" y="84" width="8" height="2" style="fill:#808080"/><rect x="116" y="86" width="8" height="2" style="fill:#000000"/><rect x="140" y="90" width="8" height="2" style="fill:#808080"/><rect x="140" y="92" width="8" height="2" style="fill:#000000"/><rect x="156" y="94" width="8" height="2" style="fill:#808080"/><rect x="164" y="98" width="8" height="2" style="fill:#000000"/><rect x="172" y="98" width="8" height="2" style="fill:#808080"/><rect x="176" y="188" width="4" height="4" style="fill:#525252"/><rect x="184" y="180" width="4" height="4" style="fill:#525252"/><rect x="188" y="88" width="4" height="4" style="fill:#808080"/><rect x="192" y="172" width="4" height="4" style="fill:#525252"/><rect x="200" y="164" width="4" height="4" style="fill:#525252"/><rect x="116" y="172" width="6" height="2" style="fill:#000000"/><rect x="126" y="176" width="6" height="2" style="fill:#000000"/><rect x="138" y="180" width="6" height="2" style="fill:#000000"/><rect x="148" y="184" width="6" height="2" style="fill:#000000"/><rect x="170" y="192" width="6" height="2" style="fill:#000000"/><rect x="208" y="150" width="2" height="6" style="fill:#525252"/><rect x="212" y="138" width="2" height="6" style="fill:#525252"/><rect x="212" y="144" width="2" height="6" style="fill:#515151"/><rect x="216" y="132" width="2" height="6" style="fill:#515151"/><rect x="218" y="68" width="6" height="2" style="fill:#808080"/><rect x="218" y="118" width="2" height="6" style="fill:#525252"/><rect x="220" y="118" width="2" height="6" style="fill:#515151"/><rect x="88" y="78" width="4" height="2" style="fill:#000000"/><rect x="96" y="74" width="4" height="2" style="fill:#808080"/><rect x="106" y="168" width="4" height="2" style="fill:#000000"/><rect x="112" y="66" width="4" height="2" style="fill:#7f7f7f"/><rect x="122" y="62" width="4" height="2" style="fill:#7f7f7f"/><rect x="130" y="58" width="4" height="2" style="fill:#7f7f7f"/><rect x="160" y="188" width="4" height="2" style="fill:#000000"/><rect x="182" y="94" width="4" height="2" style="fill:#808080"/><rect x="198" y="82" width="4" height="2" style="fill:#808080"/><rect x="198" y="86" width="4" height="2" style="fill:#525252"/><rect x="208" y="158" width="4" height="2" style="fill:#515151"/><rect x="214" y="152" width="4" height="2" style="fill:#515151"/><rect x="218" y="72" width="4" height="2" style="fill:#525252"/><rect x="122" y="70" width="2" height="2" style="fill:#808080"/><rect x="176" y="126" width="2" height="2" style="fill:#505050"/><rect x="176" y="192" width="2" height="2" style="fill:#525252"/><rect x="180" y="98" width="2" height="2" style="fill:#525252"/><rect x="180" y="188" width="2" height="2" style="fill:#525252"/><rect x="184" y="184" width="2" height="2" style="fill:#525252"/><rect x="186" y="94" width="2" height="2" style="fill:#525252"/><rect x="188" y="180" width="2" height="2" style="fill:#525252"/><rect x="192" y="88" width="2" height="2" style="fill:#808080"/><rect x="192" y="90" width="2" height="2" style="fill:#525252"/><rect x="192" y="176" width="2" height="2" style="fill:#525252"/><rect x="196" y="172" width="2" height="2" style="fill:#525252"/><rect x="198" y="84" width="2" height="2" style="fill:#808080"/><rect x="200" y="84" width="2" height="2" style="fill:#525252"/><rect x="200" y="168" width="2" height="2" style="fill:#525252"/><rect x="204" y="164" width="2" height="2" style="fill:#525252"/><rect x="206" y="78" width="2" height="2" style="fill:#808080"/><rect x="206" y="80" width="2" height="2" style="fill:#525252"/><rect x="208" y="156" width="2" height="2" style="fill:#525251"/><rect x="208" y="160" width="2" height="2" style="fill:#515151"/><rect x="212" y="74" width="2" height="2" style="fill:#808080"/><rect x="212" y="76" width="2" height="2" style="fill:#525252"/><rect x="214" y="154" width="2" height="2" style="fill:#515151"/><rect x="218" y="70" width="2" height="2" style="fill:#808080"/><rect x="220" y="70" width="2" height="2" style="fill:#525252"/><rect x="220" y="138" width="2" height="2" style="fill:#515151"/><rect x="220" y="140" width="2" height="2" style="fill:#515151"/><rect x="222" y="110" width="2" height="2" style="fill:#515151"/><rect x="224" y="66" width="2" height="2" style="fill:#7f7f7f"/></g></svg>