<!-- Created with Inkscape (http://www.inkscape.org/) --><svg xmlns:inkscape="http://www.inkscape.org/namespaces/inkscape" xmlns:sodipodi="http://sodipodi.sourceforge.net/DTD/sodipodi-0.dtd" xmlns="http://www.w3.org/2000/svg" xmlns:svg="http://www.w3.org/2000/svg" width="32" height="32" viewBox="0 0 32 32" version="1.1" id="svg1" inkscape:version="1.3 (0e150ed6c4, 2023-07-21)" sodipodi:docname="PLANTILLA.svg">
  <sodipodi:namedview id="namedview1" pagecolor="#b6b6b6" bordercolor="#666666" borderopacity="1.0" inkscape:showpageshadow="2" inkscape:pageopacity="0.0" inkscape:pagecheckerboard="true" inkscape:deskcolor="#d1d1d1" inkscape:document-units="px" showgrid="true" shape-rendering="crispEdges" inkscape:zoom="24.09375" inkscape:cx="16" inkscape:cy="16" inkscape:window-width="1920" inkscape:window-height="1009" inkscape:window-x="1912" inkscape:window-y="-8" inkscape:window-maximized="1" inkscape:current-layer="layer1">
    <inkscape:grid id="grid1" units="px" originx="0" originy="0" spacingx="1" spacingy="1" empcolor="#0099e5" empopacity="0.30196078" color="#0099e5" opacity="0.14901961" empspacing="4" dotted="false" gridanglex="30" gridanglez="30" visible="true"/>
  </sodipodi:namedview>
  <defs id="defs1"/>
  <g inkscape:label="Capa 1" inkscape:groupmode="layer" id="layer1"/>
<g inkscape:groupmode="layer" inkscape:label="Capa 1"><rect x="130" y="98" width="92" height="74" style="fill:#393939"/><rect x="122" y="70" width="88" height="16" style="fill:#808080"/><rect x="104" y="98" width="24" height="50" style="fill:#000000"/><rect x="116" y="60" width="80" height="8" style="fill:#7f7f7f"/><rect x="130" y="172" width="42" height="12" style="fill:#393939"/><rect x="176" y="90" width="50" height="8" style="fill:#393939"/><rect x="122" y="86" width="54" height="6" style="fill:#808080"/><rect x="118" y="148" width="12" height="24" style="fill:#000000"/><rect x="100" y="80" width="14" height="18" style="fill:#000000"/><rect x="148" y="56" width="42" height="4" style="fill:#7f7f7f"/><rect x="172" y="172" width="26" height="6" style="fill:#393939"/><rect x="104" y="62" width="12" height="10" style="fill:#7f7f7f"/><rect x="222" y="98" width="2" height="54" style="fill:#393939"/><rect x="124" y="92" width="26" height="4" style="fill:#808080"/><rect x="150" y="94" width="26" height="4" style="fill:#393939"/><rect x="202" y="86" width="26" height="4" style="fill:#393939"/><rect x="114" y="72" width="8" height="12" style="fill:#808080"/><rect x="130" y="184" width="24" height="4" style="fill:#393939"/><rect x="160" y="68" width="48" height="2" style="fill:#808080"/><rect x="116" y="68" width="44" height="2" style="fill:#7f7f7f"/><rect x="112" y="148" width="6" height="14" style="fill:#000000"/><rect x="128" y="98" width="2" height="40" style="fill:#393939"/><rect x="210" y="76" width="10" height="8" style="fill:#808080"/><rect x="102" y="98" width="2" height="36" style="fill:#000000"/><rect x="114" y="90" width="8" height="8" style="fill:#000000"/><rect x="124" y="172" width="6" height="10" style="fill:#000000"/><rect x="224" y="98" width="2" height="26" style="fill:#393939"/><rect x="100" y="68" width="4" height="12" style="fill:#000000"/><rect x="164" y="54" width="24" height="2" style="fill:#7f7f7f"/><rect x="176" y="86" width="24" height="2" style="fill:#808080"/><rect x="198" y="172" width="10" height="4" style="fill:#393939"/><rect x="172" y="178" width="18" height="2" style="fill:#393939"/><rect x="130" y="188" width="16" height="2" style="fill:#393939"/><rect x="132" y="58" width="16" height="2" style="fill:#7f7f7f"/><rect x="136" y="96" width="14" height="2" style="fill:#393939"/><rect x="162" y="92" width="14" height="2" style="fill:#393939"/><rect x="188" y="88" width="14" height="2" style="fill:#393939"/><rect x="214" y="84" width="14" height="2" style="fill:#393939"/><rect x="104" y="74" width="4" height="6" style="fill:#000000"/><rect x="108" y="72" width="6" height="4" style="fill:#808080"/><rect x="108" y="148" width="4" height="6" style="fill:#000000"/><rect x="150" y="92" width="12" height="2" style="fill:#808080"/><rect x="176" y="88" width="12" height="2" style="fill:#808080"/><rect x="196" y="62" width="4" height="6" style="fill:#7f7f7f"/><rect x="220" y="80" width="6" height="4" style="fill:#808080"/><rect x="126" y="96" width="10" height="2" style="fill:#808080"/><rect x="154" y="184" width="10" height="2" style="fill:#393939"/><rect x="98" y="64" width="2" height="8" style="fill:#000000"/><rect x="100" y="62" width="4" height="4" style="fill:#7f7f7f"/><rect x="114" y="86" width="4" height="4" style="fill:#000000"/><rect x="118" y="84" width="4" height="4" style="fill:#808080"/><rect x="120" y="172" width="4" height="4" style="fill:#000000"/><rect x="126" y="182" width="4" height="4" style="fill:#000000"/><rect x="128" y="140" width="2" height="8" style="fill:#000000"/><rect x="130" y="190" width="8" height="2" style="fill:#393939"/><rect x="172" y="180" width="8" height="2" style="fill:#393939"/><rect x="208" y="172" width="8" height="2" style="fill:#393939"/><rect x="210" y="72" width="4" height="4" style="fill:#808080"/><rect x="116" y="70" width="6" height="2" style="fill:#7f7f7f"/><rect x="116" y="162" width="2" height="6" style="fill:#000000"/><rect x="122" y="92" width="2" height="6" style="fill:#000000"/><rect x="200" y="66" width="6" height="2" style="fill:#7f7f7f"/><rect x="226" y="90" width="2" height="6" style="fill:#393939"/><rect x="100" y="98" width="2" height="4" style="fill:#000000"/><rect x="108" y="76" width="2" height="4" style="fill:#000000"/><rect x="110" y="76" width="4" height="2" style="fill:#808080"/><rect x="110" y="154" width="2" height="4" style="fill:#000000"/><rect x="128" y="186" width="2" height="4" style="fill:#000000"/><rect x="180" y="52" width="4" height="2" style="fill:#7f7f7f"/><rect x="190" y="58" width="4" height="2" style="fill:#7f7f7f"/><rect x="210" y="84" width="4" height="2" style="fill:#808080"/><rect x="100" y="66" width="2" height="2" style="fill:#000000"/><rect x="102" y="66" width="2" height="2" style="fill:#7f7f7f"/><rect x="104" y="72" width="2" height="2" style="fill:#000000"/><rect x="106" y="72" width="2" height="2" style="fill:#808080"/><rect x="106" y="148" width="2" height="2" style="fill:#000000"/><rect x="110" y="78" width="2" height="2" style="fill:#000000"/><rect x="112" y="78" width="2" height="2" style="fill:#808080"/><rect x="114" y="84" width="2" height="2" style="fill:#000000"/><rect x="114" y="162" width="2" height="2" style="fill:#000000"/><rect x="116" y="84" width="2" height="2" style="fill:#808080"/><rect x="118" y="88" width="2" height="2" style="fill:#000000"/><rect x="120" y="88" width="2" height="2" style="fill:#808080"/><rect x="122" y="176" width="2" height="2" style="fill:#000000"/><rect x="124" y="96" width="2" height="2" style="fill:#000000"/><rect x="128" y="138" width="2" height="2" style="fill:#030303"/><rect x="154" y="186" width="2" height="2" style="fill:#393939"/><rect x="180" y="180" width="2" height="2" style="fill:#393939"/><rect x="184" y="52" width="2" height="2" style="fill:#7f7f7f"/><rect x="200" y="64" width="2" height="2" style="fill:#7f7f7f"/><rect x="200" y="86" width="2" height="2" style="fill:#3d3d3d"/><rect x="210" y="70" width="2" height="2" style="fill:#7b7b7b"/><rect x="214" y="74" width="2" height="2" style="fill:#808080"/><rect x="220" y="78" width="2" height="2" style="fill:#808080"/><rect x="226" y="82" width="2" height="2" style="fill:#393939"/><rect x="226" y="96" width="2" height="2" style="fill:#393939"/></g></svg>