<!-- Created with Inkscape (http://www.inkscape.org/) --><svg xmlns:inkscape="http://www.inkscape.org/namespaces/inkscape" xmlns:sodipodi="http://sodipodi.sourceforge.net/DTD/sodipodi-0.dtd" xmlns="http://www.w3.org/2000/svg" xmlns:svg="http://www.w3.org/2000/svg" width="32" height="32" viewBox="0 0 32 32" version="1.1" id="svg1" inkscape:version="1.3 (0e150ed6c4, 2023-07-21)" sodipodi:docname="PLANTILLA.svg">
  <sodipodi:namedview id="namedview1" pagecolor="#b6b6b6" bordercolor="#666666" borderopacity="1.0" inkscape:showpageshadow="2" inkscape:pageopacity="0.0" inkscape:pagecheckerboard="true" inkscape:deskcolor="#d1d1d1" inkscape:document-units="px" showgrid="true" shape-rendering="crispEdges" inkscape:zoom="24.09375" inkscape:cx="16" inkscape:cy="16" inkscape:window-width="1920" inkscape:window-height="1009" inkscape:window-x="1912" inkscape:window-y="-8" inkscape:window-maximized="1" inkscape:current-layer="layer1">
    <inkscape:grid id="grid1" units="px" originx="0" originy="0" spacingx="1" spacingy="1" empcolor="#0099e5" empopacity="0.30196078" color="#0099e5" opacity="0.14901961" empspacing="4" dotted="false" gridanglex="30" gridanglez="30" visible="true"/>
  </sodipodi:namedview>
  <defs id="defs1"/>
  <g inkscape:label="Capa 1" inkscape:groupmode="layer" id="layer1"/>
<g inkscape:groupmode="layer" inkscape:label="Capa 1"><rect x="96" y="100" width="70" height="62" style="fill:#000000"/><rect x="194" y="96" width="28" height="60" style="fill:#4f4f4f"/><rect x="126" y="70" width="70" height="18" style="fill:#808080"/><rect x="178" y="134" width="16" height="42" style="fill:#4f4f4f"/><rect x="132" y="162" width="34" height="18" style="fill:#000000"/><rect x="126" y="60" width="66" height="8" style="fill:#7f7f7f"/><rect x="90" y="86" width="36" height="14" style="fill:#000000"/><rect x="168" y="100" width="14" height="30" style="fill:#505050"/><rect x="168" y="156" width="10" height="32" style="fill:#4f4f4f"/><rect x="200" y="84" width="26" height="12" style="fill:#4f4f4f"/><rect x="144" y="88" width="40" height="6" style="fill:#808080"/><rect x="196" y="68" width="20" height="10" style="fill:#808080"/><rect x="102" y="72" width="24" height="8" style="fill:#808080"/><rect x="142" y="54" width="28" height="6" style="fill:#7f7f7f"/><rect x="112" y="162" width="20" height="8" style="fill:#000000"/><rect x="126" y="92" width="18" height="8" style="fill:#000000"/><rect x="148" y="180" width="18" height="8" style="fill:#000000"/><rect x="186" y="116" width="8" height="18" style="fill:#4f4f4f"/><rect x="194" y="156" width="18" height="8" style="fill:#4f4f4f"/><rect x="182" y="94" width="6" height="22" style="fill:#505050"/><rect x="92" y="100" width="4" height="32" style="fill:#000000"/><rect x="104" y="68" width="56" height="2" style="fill:#7f7f7f"/><rect x="168" y="130" width="8" height="14" style="fill:#505050"/><rect x="90" y="80" width="18" height="6" style="fill:#000000"/><rect x="222" y="96" width="2" height="52" style="fill:#4f4f4f"/><rect x="166" y="100" width="2" height="50" style="fill:#000000"/><rect x="212" y="78" width="16" height="6" style="fill:#4f4f4f"/><rect x="156" y="94" width="20" height="4" style="fill:#808080"/><rect x="160" y="68" width="36" height="2" style="fill:#808080"/><rect x="188" y="90" width="6" height="12" style="fill:#505050"/><rect x="166" y="162" width="2" height="34" style="fill:#4f4f4f"/><rect x="192" y="64" width="16" height="4" style="fill:#7f7f7f"/><rect x="194" y="164" width="10" height="6" style="fill:#4f4f4f"/><rect x="94" y="132" width="2" height="26" style="fill:#000000"/><rect x="114" y="80" width="12" height="4" style="fill:#808080"/><rect x="120" y="170" width="12" height="4" style="fill:#000000"/><rect x="144" y="96" width="12" height="4" style="fill:#000000"/><rect x="172" y="148" width="6" height="8" style="fill:#4f4f4f"/><rect x="178" y="176" width="12" height="4" style="fill:#4f4f4f"/><rect x="196" y="78" width="12" height="4" style="fill:#808080"/><rect x="224" y="96" width="2" height="24" style="fill:#4f4f4f"/><rect x="100" y="70" width="22" height="2" style="fill:#7f7f7f"/><rect x="116" y="64" width="10" height="4" style="fill:#7f7f7f"/><rect x="156" y="188" width="10" height="4" style="fill:#000000"/><rect x="182" y="124" width="4" height="10" style="fill:#4f4f4f"/><rect x="190" y="106" width="4" height="10" style="fill:#4f4f4f"/><rect x="96" y="72" width="6" height="6" style="fill:#808080"/><rect x="216" y="68" width="6" height="6" style="fill:#808080"/><rect x="88" y="76" width="8" height="4" style="fill:#000000"/><rect x="104" y="162" width="8" height="4" style="fill:#000000"/><rect x="140" y="180" width="8" height="4" style="fill:#000000"/><rect x="168" y="144" width="4" height="8" style="fill:#505050"/><rect x="170" y="56" width="8" height="4" style="fill:#7f7f7f"/><rect x="220" y="74" width="8" height="4" style="fill:#4f4f4f"/><rect x="148" y="52" width="14" height="2" style="fill:#7f7f7f"/><rect x="108" y="82" width="6" height="4" style="fill:#000000"/><rect x="126" y="88" width="6" height="4" style="fill:#000000"/><rect x="132" y="88" width="12" height="2" style="fill:#808080"/><rect x="168" y="188" width="6" height="4" style="fill:#4f4f4f"/><rect x="176" y="96" width="6" height="4" style="fill:#505050"/><rect x="178" y="180" width="6" height="4" style="fill:#4f4f4f"/><rect x="132" y="58" width="10" height="2" style="fill:#7f7f7f"/><rect x="162" y="98" width="10" height="2" style="fill:#808080"/><rect x="166" y="152" width="2" height="10" style="fill:#505050"/><rect x="198" y="86" width="2" height="10" style="fill:#4f4f4f"/><rect x="226" y="84" width="2" height="10" style="fill:#4f4f4f"/><rect x="124" y="174" width="8" height="2" style="fill:#000000"/><rect x="174" y="144" width="4" height="4" style="fill:#4f4f4f"/><rect x="176" y="130" width="4" height="4" style="fill:#505050"/><rect x="182" y="116" width="4" height="4" style="fill:#505050"/><rect x="184" y="88" width="8" height="2" style="fill:#808080"/><rect x="188" y="102" width="4" height="4" style="fill:#505050"/><rect x="192" y="62" width="8" height="2" style="fill:#7f7f7f"/><rect x="194" y="88" width="4" height="4" style="fill:#505050"/><rect x="194" y="170" width="4" height="4" style="fill:#4f4f4f"/><rect x="196" y="82" width="8" height="2" style="fill:#808080"/><rect x="204" y="82" width="8" height="2" style="fill:#4f4f4f"/><rect x="208" y="66" width="8" height="2" style="fill:#7f7f7f"/><rect x="212" y="156" width="8" height="2" style="fill:#4f4f4f"/><rect x="90" y="74" width="6" height="2" style="fill:#808080"/><rect x="90" y="100" width="2" height="6" style="fill:#000000"/><rect x="96" y="78" width="6" height="2" style="fill:#000000"/><rect x="108" y="80" width="6" height="2" style="fill:#808080"/><rect x="110" y="66" width="6" height="2" style="fill:#7f7f7f"/><rect x="114" y="84" width="6" height="2" style="fill:#000000"/><rect x="120" y="84" width="6" height="2" style="fill:#808080"/><rect x="132" y="90" width="6" height="2" style="fill:#000000"/><rect x="138" y="90" width="6" height="2" style="fill:#808080"/><rect x="144" y="94" width="6" height="2" style="fill:#000000"/><rect x="150" y="94" width="6" height="2" style="fill:#808080"/><rect x="156" y="98" width="6" height="2" style="fill:#000000"/><rect x="160" y="192" width="6" height="2" style="fill:#000000"/><rect x="178" y="58" width="6" height="2" style="fill:#7f7f7f"/><rect x="188" y="110" width="2" height="6" style="fill:#4f4f4f"/><rect x="100" y="162" width="4" height="2" style="fill:#000000"/><rect x="108" y="166" width="4" height="2" style="fill:#000000"/><rect x="116" y="170" width="4" height="2" style="fill:#000000"/><rect x="122" y="62" width="4" height="2" style="fill:#7f7f7f"/><rect x="122" y="70" width="4" height="2" style="fill:#808080"/><rect x="128" y="176" width="4" height="2" style="fill:#000000"/><rect x="136" y="180" width="4" height="2" style="fill:#000000"/><rect x="138" y="56" width="4" height="2" style="fill:#7f7f7f"/><rect x="144" y="184" width="4" height="2" style="fill:#000000"/><rect x="152" y="188" width="4" height="2" style="fill:#000000"/><rect x="168" y="152" width="2" height="4" style="fill:#505050"/><rect x="170" y="152" width="2" height="4" style="fill:#4f4f4f"/><rect x="172" y="98" width="4" height="2" style="fill:#505050"/><rect x="172" y="144" width="2" height="4" style="fill:#505050"/><rect x="176" y="94" width="4" height="2" style="fill:#808080"/><rect x="176" y="134" width="2" height="4" style="fill:#505050"/><rect x="176" y="140" width="2" height="4" style="fill:#4f4f4f"/><rect x="178" y="184" width="4" height="2" style="fill:#4f4f4f"/><rect x="180" y="130" width="2" height="4" style="fill:#4f4f4f"/><rect x="182" y="120" width="2" height="4" style="fill:#505050"/><rect x="184" y="90" width="4" height="2" style="fill:#808080"/><rect x="184" y="92" width="4" height="2" style="fill:#505050"/><rect x="184" y="120" width="2" height="4" style="fill:#4f4f4f"/><rect x="188" y="106" width="2" height="4" style="fill:#505050"/><rect x="192" y="102" width="2" height="4" style="fill:#4f4f4f"/><rect x="194" y="92" width="2" height="4" style="fill:#505050"/><rect x="196" y="84" width="4" height="2" style="fill:#808080"/><rect x="196" y="92" width="2" height="4" style="fill:#4f4f4f"/><rect x="204" y="164" width="4" height="2" style="fill:#4f4f4f"/><rect x="208" y="78" width="4" height="2" style="fill:#808080"/><rect x="208" y="80" width="4" height="2" style="fill:#4f4f4f"/><rect x="212" y="158" width="4" height="2" style="fill:#4f4f4f"/><rect x="216" y="74" width="4" height="2" style="fill:#808080"/><rect x="216" y="76" width="4" height="2" style="fill:#4f4f4f"/><rect x="222" y="68" width="2" height="4" style="fill:#808080"/><rect x="224" y="72" width="4" height="2" style="fill:#4f4f4f"/><rect x="88" y="74" width="2" height="2" style="fill:#3f3f3f"/><rect x="94" y="72" width="2" height="2" style="fill:#7f7f7f"/><rect x="164" y="194" width="2" height="2" style="fill:#000000"/><rect x="166" y="150" width="2" height="2" style="fill:#3d3d3d"/><rect x="168" y="192" width="2" height="2" style="fill:#4f4f4f"/><rect x="174" y="188" width="2" height="2" style="fill:#4f4f4f"/><rect x="176" y="138" width="2" height="2" style="fill:#50504f"/><rect x="180" y="94" width="2" height="2" style="fill:#505050"/><rect x="184" y="58" width="2" height="2" style="fill:#7f7f7f"/><rect x="184" y="180" width="2" height="2" style="fill:#4f4f4f"/><rect x="190" y="176" width="2" height="2" style="fill:#4f4f4f"/><rect x="192" y="88" width="2" height="2" style="fill:#505050"/><rect x="196" y="86" width="2" height="2" style="fill:#505050"/><rect x="198" y="170" width="2" height="2" style="fill:#4f4f4f"/><rect x="204" y="166" width="2" height="2" style="fill:#4f4f4f"/><rect x="212" y="160" width="2" height="2" style="fill:#4f4f4f"/><rect x="222" y="72" width="2" height="2" style="fill:#7f7f7f"/><rect x="224" y="70" width="2" height="2" style="fill:#808080"/><rect x="224" y="120" width="2" height="2" style="fill:#4f4f4f"/><rect x="226" y="70" width="2" height="2" style="fill:#6d6d6d"/></g></svg>