<!-- Created with Inkscape (http://www.inkscape.org/) --><svg xmlns:inkscape="http://www.inkscape.org/namespaces/inkscape" xmlns:sodipodi="http://sodipodi.sourceforge.net/DTD/sodipodi-0.dtd" xmlns="http://www.w3.org/2000/svg" xmlns:svg="http://www.w3.org/2000/svg" width="32" height="32" viewBox="0 0 32 32" version="1.1" id="svg1" inkscape:version="1.3 (0e150ed6c4, 2023-07-21)" sodipodi:docname="PLANTILLA.svg">
  <sodipodi:namedview id="namedview1" pagecolor="#b6b6b6" bordercolor="#666666" borderopacity="1.0" inkscape:showpageshadow="2" inkscape:pageopacity="0.0" inkscape:pagecheckerboard="true" inkscape:deskcolor="#d1d1d1" inkscape:document-units="px" showgrid="true" shape-rendering="crispEdges" inkscape:zoom="24.09375" inkscape:cx="16" inkscape:cy="16" inkscape:window-width="1920" inkscape:window-height="1009" inkscape:window-x="1912" inkscape:window-y="-8" inkscape:window-maximized="1" inkscape:current-layer="layer1">
    <inkscape:grid id="grid1" units="px" originx="0" originy="0" spacingx="1" spacingy="1" empcolor="#0099e5" empopacity="0.30196078" color="#0099e5" opacity="0.14901961" empspacing="4" dotted="false" gridanglex="30" gridanglez="30" visible="true"/>
  </sodipodi:namedview>
  <defs id="defs1"/>
  <g inkscape:label="Capa 1" inkscape:groupmode="layer" id="layer1"/>
<g inkscape:groupmode="layer" inkscape:label="Capa 1"><rect x="122" y="100" width="96" height="76" style="fill:#303030"/><rect x="122" y="70" width="88" height="18" style="fill:#808080"/><rect x="106" y="60" width="94" height="8" style="fill:#7f7f7f"/><rect x="108" y="100" width="12" height="46" style="fill:#000000"/><rect x="122" y="176" width="48" height="8" style="fill:#303030"/><rect x="170" y="94" width="54" height="6" style="fill:#303030"/><rect x="116" y="88" width="58" height="4" style="fill:#808080"/><rect x="150" y="56" width="44" height="4" style="fill:#7f7f7f"/><rect x="218" y="100" width="4" height="42" style="fill:#303030"/><rect x="114" y="146" width="8" height="18" style="fill:#000000"/><rect x="106" y="78" width="6" height="22" style="fill:#000000"/><rect x="114" y="72" width="8" height="16" style="fill:#808080"/><rect x="170" y="176" width="28" height="4" style="fill:#303030"/><rect x="106" y="68" width="54" height="2" style="fill:#7f7f7f"/><rect x="120" y="96" width="2" height="48" style="fill:#303030"/><rect x="160" y="68" width="48" height="2" style="fill:#808080"/><rect x="122" y="184" width="22" height="4" style="fill:#303030"/><rect x="148" y="96" width="22" height="4" style="fill:#303030"/><rect x="206" y="88" width="14" height="6" style="fill:#303030"/><rect x="118" y="92" width="36" height="2" style="fill:#808080"/><rect x="128" y="96" width="16" height="4" style="fill:#303030"/><rect x="210" y="78" width="8" height="8" style="fill:#808080"/><rect x="118" y="164" width="4" height="14" style="fill:#000000"/><rect x="154" y="92" width="28" height="2" style="fill:#303030"/><rect x="174" y="90" width="28" height="2" style="fill:#303030"/><rect x="218" y="142" width="2" height="28" style="fill:#303030"/><rect x="104" y="66" width="2" height="26" style="fill:#000000"/><rect x="106" y="100" width="2" height="26" style="fill:#000000"/><rect x="136" y="94" width="26" height="2" style="fill:#303030"/><rect x="112" y="88" width="4" height="12" style="fill:#000000"/><rect x="126" y="58" width="24" height="2" style="fill:#7f7f7f"/><rect x="174" y="88" width="20" height="2" style="fill:#808080"/><rect x="174" y="54" width="18" height="2" style="fill:#7f7f7f"/><rect x="188" y="92" width="18" height="2" style="fill:#303030"/><rect x="118" y="94" width="16" height="2" style="fill:#808080"/><rect x="108" y="70" width="14" height="2" style="fill:#7f7f7f"/><rect x="144" y="184" width="14" height="2" style="fill:#303030"/><rect x="170" y="180" width="14" height="2" style="fill:#303030"/><rect x="198" y="176" width="14" height="2" style="fill:#303030"/><rect x="110" y="72" width="4" height="6" style="fill:#808080"/><rect x="110" y="146" width="4" height="6" style="fill:#000000"/><rect x="194" y="88" width="12" height="2" style="fill:#303030"/><rect x="222" y="100" width="2" height="12" style="fill:#303030"/><rect x="214" y="86" width="10" height="2" style="fill:#303030"/><rect x="106" y="70" width="2" height="8" style="fill:#000000"/><rect x="116" y="92" width="2" height="8" style="fill:#000000"/><rect x="162" y="94" width="8" height="2" style="fill:#2f2f2f"/><rect x="200" y="64" width="4" height="4" style="fill:#7f7f7f"/><rect x="210" y="74" width="4" height="4" style="fill:#808080"/><rect x="218" y="82" width="4" height="4" style="fill:#808080"/><rect x="220" y="90" width="4" height="4" style="fill:#303030"/><rect x="104" y="60" width="2" height="6" style="fill:#7f7f7f"/><rect x="112" y="78" width="2" height="6" style="fill:#808080"/><rect x="112" y="152" width="2" height="6" style="fill:#000000"/><rect x="116" y="164" width="2" height="6" style="fill:#000000"/><rect x="120" y="178" width="2" height="6" style="fill:#000000"/><rect x="122" y="96" width="6" height="2" style="fill:#303030"/><rect x="124" y="188" width="6" height="2" style="fill:#303030"/><rect x="182" y="92" width="6" height="2" style="fill:#2f2f2f"/><rect x="108" y="74" width="2" height="4" style="fill:#000000"/><rect x="112" y="84" width="2" height="4" style="fill:#000000"/><rect x="124" y="98" width="4" height="2" style="fill:#2f2f2f"/><rect x="144" y="96" width="4" height="2" style="fill:#2f2f2f"/><rect x="144" y="98" width="4" height="2" style="fill:#303030"/><rect x="194" y="58" width="4" height="2" style="fill:#7f7f7f"/><rect x="202" y="90" width="4" height="2" style="fill:#2f2f2f"/><rect x="210" y="86" width="4" height="2" style="fill:#808080"/><rect x="220" y="88" width="4" height="2" style="fill:#2f2f2f"/><rect x="104" y="92" width="2" height="2" style="fill:#000000"/><rect x="108" y="72" width="2" height="2" style="fill:#808080"/><rect x="118" y="96" width="2" height="2" style="fill:#303030"/><rect x="118" y="98" width="2" height="2" style="fill:#242424"/><rect x="120" y="144" width="2" height="2" style="fill:#000000"/><rect x="122" y="98" width="2" height="2" style="fill:#303030"/><rect x="122" y="188" width="2" height="2" style="fill:#000000"/><rect x="134" y="94" width="2" height="2" style="fill:#323232"/><rect x="200" y="62" width="2" height="2" style="fill:#7f7f7f"/><rect x="204" y="66" width="2" height="2" style="fill:#7f7f7f"/><rect x="210" y="72" width="2" height="2" style="fill:#808080"/><rect x="214" y="76" width="2" height="2" style="fill:#808080"/><rect x="218" y="80" width="2" height="2" style="fill:#808080"/><rect x="222" y="84" width="2" height="2" style="fill:#808080"/><rect x="222" y="112" width="2" height="2" style="fill:#303030"/></g></svg>