<!-- Created with Inkscape (http://www.inkscape.org/) --><svg xmlns:inkscape="http://www.inkscape.org/namespaces/inkscape" xmlns:sodipodi="http://sodipodi.sourceforge.net/DTD/sodipodi-0.dtd" xmlns="http://www.w3.org/2000/svg" xmlns:svg="http://www.w3.org/2000/svg" width="32" height="32" viewBox="0 0 32 32" version="1.1" id="svg1" inkscape:version="1.3 (0e150ed6c4, 2023-07-21)" sodipodi:docname="PLANTILLA.svg">
  <sodipodi:namedview id="namedview1" pagecolor="#b6b6b6" bordercolor="#666666" borderopacity="1.0" inkscape:showpageshadow="2" inkscape:pageopacity="0.0" inkscape:pagecheckerboard="true" inkscape:deskcolor="#d1d1d1" inkscape:document-units="px" showgrid="true" shape-rendering="crispEdges" inkscape:zoom="24.09375" inkscape:cx="16" inkscape:cy="16" inkscape:window-width="1920" inkscape:window-height="1009" inkscape:window-x="1912" inkscape:window-y="-8" inkscape:window-maximized="1" inkscape:current-layer="layer1">
    <inkscape:grid id="grid1" units="px" originx="0" originy="0" spacingx="1" spacingy="1" empcolor="#0099e5" empopacity="0.30196078" color="#0099e5" opacity="0.14901961" empspacing="4" dotted="false" gridanglex="30" gridanglez="30" visible="true"/>
  </sodipodi:namedview>
  <defs id="defs1"/>
  <g inkscape:label="Capa 1" inkscape:groupmode="layer" id="layer1"/>
<g inkscape:groupmode="layer" inkscape:label="Capa 1"><rect x="96" y="98" width="82" height="70" style="fill:#000000"/><rect x="124" y="70" width="74" height="18" style="fill:#808080"/><rect x="182" y="100" width="18" height="58" style="fill:#535353"/><rect x="138" y="168" width="42" height="14" style="fill:#000000"/><rect x="124" y="60" width="72" height="8" style="fill:#7f7f7f"/><rect x="90" y="88" width="42" height="10" style="fill:#000000"/><rect x="200" y="84" width="10" height="36" style="fill:#535353"/><rect x="210" y="112" width="10" height="36" style="fill:#525252"/><rect x="180" y="158" width="12" height="24" style="fill:#535353"/><rect x="104" y="72" width="20" height="12" style="fill:#808080"/><rect x="152" y="88" width="38" height="6" style="fill:#808080"/><rect x="178" y="100" width="4" height="56" style="fill:#000000"/><rect x="132" y="56" width="42" height="4" style="fill:#7f7f7f"/><rect x="114" y="168" width="24" height="6" style="fill:#000000"/><rect x="204" y="136" width="6" height="24" style="fill:#525252"/><rect x="216" y="88" width="6" height="24" style="fill:#525252"/><rect x="158" y="182" width="22" height="6" style="fill:#000000"/><rect x="198" y="68" width="16" height="8" style="fill:#808080"/><rect x="92" y="98" width="4" height="30" style="fill:#000000"/><rect x="210" y="76" width="6" height="20" style="fill:#535353"/><rect x="132" y="94" width="28" height="4" style="fill:#000000"/><rect x="110" y="68" width="50" height="2" style="fill:#7f7f7f"/><rect x="90" y="84" width="24" height="4" style="fill:#000000"/><rect x="196" y="64" width="24" height="4" style="fill:#7f7f7f"/><rect x="200" y="120" width="6" height="16" style="fill:#535353"/><rect x="190" y="92" width="10" height="8" style="fill:#535353"/><rect x="160" y="68" width="38" height="2" style="fill:#808080"/><rect x="200" y="150" width="4" height="18" style="fill:#525252"/><rect x="220" y="70" width="4" height="18" style="fill:#525252"/><rect x="170" y="94" width="16" height="4" style="fill:#808080"/><rect x="94" y="128" width="2" height="28" style="fill:#000000"/><rect x="192" y="158" width="4" height="14" style="fill:#535353"/><rect x="136" y="54" width="26" height="2" style="fill:#7f7f7f"/><rect x="96" y="76" width="8" height="6" style="fill:#808080"/><rect x="126" y="174" width="12" height="4" style="fill:#000000"/><rect x="198" y="76" width="8" height="6" style="fill:#808080"/><rect x="132" y="88" width="20" height="2" style="fill:#808080"/><rect x="132" y="90" width="10" height="4" style="fill:#000000"/><rect x="170" y="188" width="10" height="4" style="fill:#000000"/><rect x="180" y="182" width="6" height="6" style="fill:#535353"/><rect x="210" y="148" width="6" height="6" style="fill:#525252"/><rect x="106" y="70" width="16" height="2" style="fill:#7f7f7f"/><rect x="106" y="168" width="8" height="4" style="fill:#000000"/><rect x="150" y="182" width="8" height="4" style="fill:#000000"/><rect x="196" y="164" width="4" height="8" style="fill:#525252"/><rect x="200" y="136" width="4" height="8" style="fill:#535353"/><rect x="206" y="128" width="4" height="8" style="fill:#525252"/><rect x="210" y="96" width="4" height="8" style="fill:#535353"/><rect x="212" y="104" width="4" height="8" style="fill:#525252"/><rect x="216" y="72" width="2" height="16" style="fill:#535353"/><rect x="90" y="82" width="14" height="2" style="fill:#000000"/><rect x="118" y="64" width="6" height="4" style="fill:#7f7f7f"/><rect x="178" y="156" width="2" height="12" style="fill:#000000"/><rect x="196" y="62" width="12" height="2" style="fill:#7f7f7f"/><rect x="114" y="84" width="10" height="2" style="fill:#808080"/><rect x="114" y="86" width="10" height="2" style="fill:#000000"/><rect x="140" y="52" width="10" height="2" style="fill:#7f7f7f"/><rect x="142" y="90" width="10" height="2" style="fill:#808080"/><rect x="160" y="94" width="10" height="2" style="fill:#808080"/><rect x="160" y="96" width="10" height="2" style="fill:#000000"/><rect x="174" y="58" width="10" height="2" style="fill:#7f7f7f"/><rect x="218" y="78" width="2" height="10" style="fill:#525252"/><rect x="142" y="92" width="8" height="2" style="fill:#000000"/><rect x="186" y="96" width="4" height="4" style="fill:#535353"/><rect x="190" y="88" width="4" height="4" style="fill:#808080"/><rect x="196" y="88" width="4" height="4" style="fill:#535353"/><rect x="206" y="80" width="4" height="4" style="fill:#535353"/><rect x="206" y="120" width="2" height="8" style="fill:#535353"/><rect x="208" y="120" width="2" height="8" style="fill:#525252"/><rect x="210" y="104" width="2" height="8" style="fill:#535353"/><rect x="214" y="68" width="4" height="4" style="fill:#808080"/><rect x="214" y="96" width="2" height="8" style="fill:#525252"/><rect x="218" y="70" width="2" height="8" style="fill:#535353"/><rect x="90" y="78" width="6" height="2" style="fill:#808080"/><rect x="90" y="80" width="6" height="2" style="fill:#000000"/><rect x="98" y="74" width="6" height="2" style="fill:#808080"/><rect x="100" y="168" width="6" height="2" style="fill:#000000"/><rect x="120" y="174" width="6" height="2" style="fill:#000000"/><rect x="132" y="178" width="6" height="2" style="fill:#000000"/><rect x="144" y="182" width="6" height="2" style="fill:#000000"/><rect x="164" y="188" width="6" height="2" style="fill:#000000"/><rect x="178" y="98" width="6" height="2" style="fill:#808080"/><rect x="180" y="188" width="2" height="6" style="fill:#535353"/><rect x="192" y="172" width="2" height="6" style="fill:#535353"/><rect x="196" y="158" width="2" height="6" style="fill:#535353"/><rect x="198" y="82" width="6" height="2" style="fill:#808080"/><rect x="198" y="158" width="2" height="6" style="fill:#525252"/><rect x="200" y="144" width="2" height="6" style="fill:#535353"/><rect x="202" y="144" width="2" height="6" style="fill:#525252"/><rect x="204" y="160" width="2" height="6" style="fill:#525252"/><rect x="220" y="112" width="2" height="6" style="fill:#525252"/><rect x="90" y="98" width="2" height="4" style="fill:#000000"/><rect x="114" y="66" width="4" height="2" style="fill:#7f7f7f"/><rect x="120" y="62" width="4" height="2" style="fill:#7f7f7f"/><rect x="128" y="58" width="4" height="2" style="fill:#7f7f7f"/><rect x="176" y="192" width="4" height="2" style="fill:#000000"/><rect x="186" y="182" width="4" height="2" style="fill:#535353"/><rect x="194" y="172" width="4" height="2" style="fill:#525252"/><rect x="206" y="76" width="4" height="2" style="fill:#808080"/><rect x="210" y="154" width="4" height="2" style="fill:#525252"/><rect x="220" y="66" width="4" height="2" style="fill:#7f7f7f"/><rect x="92" y="128" width="2" height="2" style="fill:#000000"/><rect x="94" y="76" width="2" height="2" style="fill:#808080"/><rect x="102" y="72" width="2" height="2" style="fill:#808080"/><rect x="122" y="70" width="2" height="2" style="fill:#808080"/><rect x="150" y="92" width="2" height="2" style="fill:#717171"/><rect x="180" y="156" width="2" height="2" style="fill:#121212"/><rect x="182" y="188" width="2" height="2" style="fill:#535353"/><rect x="184" y="98" width="2" height="2" style="fill:#535353"/><rect x="186" y="94" width="2" height="2" style="fill:#808080"/><rect x="186" y="184" width="2" height="2" style="fill:#535353"/><rect x="188" y="94" width="2" height="2" style="fill:#535353"/><rect x="192" y="178" width="2" height="2" style="fill:#525252"/><rect x="194" y="88" width="2" height="2" style="fill:#808080"/><rect x="194" y="90" width="2" height="2" style="fill:#535353"/><rect x="194" y="174" width="2" height="2" style="fill:#525252"/><rect x="198" y="84" width="2" height="2" style="fill:#808080"/><rect x="198" y="86" width="2" height="2" style="fill:#535353"/><rect x="200" y="168" width="2" height="2" style="fill:#525252"/><rect x="204" y="82" width="2" height="2" style="fill:#535353"/><rect x="206" y="78" width="2" height="2" style="fill:#808080"/><rect x="206" y="160" width="2" height="2" style="fill:#525252"/><rect x="208" y="78" width="2" height="2" style="fill:#535353"/><rect x="210" y="156" width="2" height="2" style="fill:#525252"/><rect x="214" y="72" width="2" height="2" style="fill:#808080"/><rect x="214" y="74" width="2" height="2" style="fill:#535353"/><rect x="216" y="148" width="2" height="2" style="fill:#525252"/><rect x="216" y="150" width="2" height="2" style="fill:#525252"/><rect x="218" y="68" width="2" height="2" style="fill:#808080"/><rect x="220" y="68" width="2" height="2" style="fill:#535353"/><rect x="222" y="68" width="2" height="2" style="fill:#525252"/></g></svg>