<?xml version="1.0" encoding="UTF-8" standalone="no"?>
<!-- Created with Inkscape (http://www.inkscape.org/) -->

<svg
   width="32"
   height="32"
   viewBox="0 0 32 32"
   version="1.1"
   id="svg1"
   inkscape:version="1.3 (0e150ed6c4, 2023-07-21)"
   sodipodi:docname="Critter_R_0.svg"
   xmlns:inkscape="http://www.inkscape.org/namespaces/inkscape"
   xmlns:sodipodi="http://sodipodi.sourceforge.net/DTD/sodipodi-0.dtd"
   xmlns="http://www.w3.org/2000/svg"
   xmlns:svg="http://www.w3.org/2000/svg">
  <sodipodi:namedview
     id="namedview1"
     pagecolor="#b6b6b6"
     bordercolor="#666666"
     borderopacity="1.0"
     inkscape:showpageshadow="2"
     inkscape:pageopacity="0.0"
     inkscape:pagecheckerboard="true"
     inkscape:deskcolor="#d1d1d1"
     inkscape:document-units="px"
     showgrid="true"
     shape-rendering="crispEdges"
     inkscape:zoom="8.518427"
     inkscape:cx="21.600232"
     inkscape:cy="17.667581"
     inkscape:window-width="1920"
     inkscape:window-height="1009"
     inkscape:window-x="1912"
     inkscape:window-y="-8"
     inkscape:window-maximized="1"
     inkscape:current-layer="g34">
    <inkscape:grid
       id="grid1"
       units="px"
       originx="0"
       originy="0"
       spacingx="1"
       spacingy="1"
       empcolor="#0099e5"
       empopacity="0.30196078"
       color="#0099e5"
       opacity="0.14901961"
       empspacing="4"
       dotted="false"
       gridanglex="30"
       gridanglez="30"
       visible="true" />
  </sodipodi:namedview>
  <defs
     id="defs1" />
  <g
     inkscape:label="Capa 1"
     inkscape:groupmode="layer"
     id="layer1" />
  <g
     inkscape:groupmode="layer"
     inkscape:label="Capa 1"
     id="g34">
    <rect
       x="-32"
       y="20"
       width="30"
       height="8"
       style="fill:#314a77"
       id="rect1"
       transform="scale(-1,1)" />
    <rect
       x="-30"
       y="14"
       width="26"
       height="16"
       style="fill:#314a77;stroke-width:3.2249"
       id="rect3"
       transform="scale(-1,1)" />
    <rect
       x="-26"
       y="10"
       width="20"
       height="4"
       style="fill:#314a77;stroke-width:1.41421"
       id="rect4"
       transform="scale(-1,1)" />
    <rect
       x="-28"
       y="30"
       width="8"
       height="2"
       style="fill:#253552"
       id="rect7"
       transform="scale(-1,1)" />
    <rect
       x="-24"
       y="6"
       width="4"
       height="4"
       style="fill:#778ca9"
       id="rect8"
       transform="scale(-1,1)" />
    <rect
       x="-2"
       y="20"
       width="2"
       height="8"
       style="fill:#253552"
       id="rect9"
       transform="scale(-1,1)" />
    <rect
       x="-26"
       y="14"
       width="6"
       height="2"
       style="fill:#000021"
       id="rect10"
       transform="scale(-1,1)" />
    <rect
       x="-18"
       y="10"
       width="6"
       height="2"
       style="fill:#253552"
       id="rect13"
       transform="scale(-1,1)" />
    <rect
       x="-14"
       y="14"
       width="6"
       height="2"
       style="fill:#000021"
       id="rect14"
       transform="scale(-1,1)" />
    <rect
       x="-14"
       y="30"
       width="6"
       height="2"
       style="fill:#253552"
       id="rect15"
       transform="scale(-1,1)" />
    <rect
       x="-20"
       y="16"
       width="4"
       height="2"
       style="fill:#000021"
       id="rect17"
       transform="scale(-1,1)" />
    <rect
       x="-20"
       y="18"
       width="4"
       height="2"
       style="fill:#253552"
       id="rect18"
       transform="scale(-1,1)" />
    <rect
       x="-20"
       y="28"
       width="4"
       height="2"
       style="fill:#253552"
       id="rect19"
       transform="scale(-1,1)" />
    <rect
       x="-8"
       y="6"
       width="4"
       height="4"
       style="fill:#778ca9;stroke-width:1.41421"
       id="rect20"
       transform="scale(-1,1)" />
    <rect
       x="-4"
       y="14"
       width="2"
       height="4"
       style="fill:#253552"
       id="rect22"
       transform="scale(-1,1)" />
    <rect
       x="-32"
       y="18"
       width="2"
       height="2"
       style="fill:#253552"
       id="rect23"
       transform="scale(-1,1)" />
    <rect
       x="-32"
       y="28"
       width="2"
       height="2"
       style="fill:#253552"
       id="rect24"
       transform="scale(-1,1)" />
    <rect
       x="-30"
       y="14"
       width="2"
       height="2"
       style="fill:#253552"
       id="rect25"
       transform="scale(-1,1)" />
    <rect
       x="-28"
       y="12"
       width="2"
       height="2"
       style="fill:#253552"
       id="rect26"
       transform="scale(-1,1)" />
    <rect
       x="-26"
       y="10"
       width="2"
       height="2"
       style="fill:#253552"
       id="rect28"
       transform="scale(-1,1)" />
    <rect
       x="-10"
       y="8"
       width="2"
       height="2"
       style="fill:#253552"
       id="rect29"
       transform="scale(-1,1)" />
    <rect
       x="-8"
       y="8"
       width="2"
       height="2"
       style="fill:#314a77"
       id="rect30"
       transform="scale(-1,1)" />
    <rect
       x="-6"
       y="12"
       width="2"
       height="2"
       style="fill:#253552"
       id="rect32"
       transform="scale(-1,1)" />
    <rect
       x="-6"
       y="28"
       width="2"
       height="2"
       style="fill:#253552"
       id="rect33"
       transform="scale(-1,1)" />
    <rect
       x="-4"
       y="18"
       width="2"
       height="2"
       style="fill:#314a77"
       id="rect34"
       transform="scale(-1,1)" />
  </g>
</svg>
