<!-- Created with Inkscape (http://www.inkscape.org/) --><svg xmlns:inkscape="http://www.inkscape.org/namespaces/inkscape" xmlns:sodipodi="http://sodipodi.sourceforge.net/DTD/sodipodi-0.dtd" xmlns="http://www.w3.org/2000/svg" xmlns:svg="http://www.w3.org/2000/svg" width="32" height="32" viewBox="0 0 32 32" version="1.1" id="svg1" inkscape:version="1.3 (0e150ed6c4, 2023-07-21)" sodipodi:docname="PLANTILLA.svg">
  <sodipodi:namedview id="namedview1" pagecolor="#b6b6b6" bordercolor="#666666" borderopacity="1.0" inkscape:showpageshadow="2" inkscape:pageopacity="0.0" inkscape:pagecheckerboard="true" inkscape:deskcolor="#d1d1d1" inkscape:document-units="px" showgrid="true" shape-rendering="crispEdges" inkscape:zoom="24.09375" inkscape:cx="16" inkscape:cy="16" inkscape:window-width="1920" inkscape:window-height="1009" inkscape:window-x="1912" inkscape:window-y="-8" inkscape:window-maximized="1" inkscape:current-layer="layer1">
    <inkscape:grid id="grid1" units="px" originx="0" originy="0" spacingx="1" spacingy="1" empcolor="#0099e5" empopacity="0.30196078" color="#0099e5" opacity="0.14901961" empspacing="4" dotted="false" gridanglex="30" gridanglez="30" visible="true"/>
  </sodipodi:namedview>
  <defs id="defs1"/>
  <g inkscape:label="Capa 1" inkscape:groupmode="layer" id="layer1"/>
<g inkscape:groupmode="layer" inkscape:label="Capa 1"><rect x="36" y="6" width="16" height="26" style="fill:#a9bdc5"/><rect x="14" y="2" width="6" height="36" style="fill:#294656"/><rect x="20" y="36" width="40" height="4" style="fill:#294656"/><rect x="22" y="2" width="44" height="2" style="fill:#daefde"/><rect x="8" y="20" width="6" height="10" style="fill:#a9824a"/><rect x="20" y="4" width="2" height="30" style="fill:#daefde"/><rect x="22" y="4" width="2" height="30" style="fill:#a9bdc5"/><rect x="66" y="4" width="2" height="30" style="fill:#daefde"/><rect x="64" y="6" width="2" height="28" style="fill:#294656"/><rect x="28" y="44" width="26" height="2" style="fill:#294656"/><rect x="8" y="6" width="4" height="12" style="fill:#294656"/><rect x="32" y="4" width="24" height="2" style="fill:#294656"/><rect x="32" y="34" width="24" height="2" style="fill:#a9bdc5"/><rect x="24" y="6" width="4" height="8" style="fill:#a9bdc5"/><rect x="24" y="26" width="4" height="8" style="fill:#a9bdc5"/><rect x="26" y="18" width="4" height="8" style="fill:#daefde"/><rect x="28" y="6" width="4" height="8" style="fill:#a9824a"/><rect x="28" y="26" width="4" height="8" style="fill:#a9824a"/><rect x="32" y="6" width="4" height="8" style="fill:#a9bdc5"/><rect x="32" y="26" width="4" height="8" style="fill:#a9bdc5"/><rect x="40" y="40" width="16" height="2" style="fill:#294656"/><rect x="52" y="6" width="4" height="8" style="fill:#a9bdc5"/><rect x="52" y="26" width="4" height="8" style="fill:#a9bdc5"/><rect x="54" y="18" width="4" height="8" style="fill:#daefde"/><rect x="56" y="6" width="4" height="8" style="fill:#a9824a"/><rect x="56" y="26" width="4" height="8" style="fill:#a9824a"/><rect x="60" y="6" width="4" height="8" style="fill:#a9bdc5"/><rect x="60" y="26" width="4" height="8" style="fill:#a9bdc5"/><rect x="28" y="42" width="14" height="2" style="fill:#a9bdc5"/><rect x="38" y="32" width="14" height="2" style="fill:#294656"/><rect x="8" y="30" width="4" height="6" style="fill:#294656"/><rect x="42" y="42" width="12" height="2" style="fill:#638088"/><rect x="68" y="24" width="4" height="6" style="fill:#a9824a"/><rect x="22" y="34" width="10" height="2" style="fill:#daefde"/><rect x="30" y="40" width="10" height="2" style="fill:#638088"/><rect x="12" y="2" width="2" height="8" style="fill:#294656"/><rect x="22" y="40" width="8" height="2" style="fill:#294656"/><rect x="26" y="14" width="8" height="2" style="fill:#011002"/><rect x="30" y="18" width="2" height="8" style="fill:#011002"/><rect x="32" y="18" width="2" height="8" style="fill:#daefde"/><rect x="54" y="14" width="8" height="2" style="fill:#011002"/><rect x="56" y="34" width="8" height="2" style="fill:#daefde"/><rect x="58" y="18" width="2" height="8" style="fill:#011002"/><rect x="60" y="18" width="2" height="8" style="fill:#daefde"/><rect x="6" y="24" width="2" height="6" style="fill:#a9824a"/><rect x="12" y="10" width="2" height="6" style="fill:#011002"/><rect x="12" y="32" width="2" height="6" style="fill:#294656"/><rect x="60" y="36" width="6" height="2" style="fill:#294656"/><rect x="10" y="18" width="4" height="2" style="fill:#a9824a"/><rect x="16" y="38" width="4" height="2" style="fill:#294656"/><rect x="24" y="4" width="4" height="2" style="fill:#294656"/><rect x="24" y="20" width="2" height="4" style="fill:#daefde"/><rect x="26" y="16" width="4" height="2" style="fill:#a9bdc5"/><rect x="28" y="4" width="4" height="2" style="fill:#011002"/><rect x="34" y="20" width="2" height="4" style="fill:#daefde"/><rect x="52" y="20" width="2" height="4" style="fill:#daefde"/><rect x="54" y="16" width="4" height="2" style="fill:#a9bdc5"/><rect x="56" y="4" width="4" height="2" style="fill:#011002"/><rect x="60" y="4" width="4" height="2" style="fill:#294656"/><rect x="62" y="20" width="2" height="4" style="fill:#daefde"/><rect x="68" y="20" width="2" height="4" style="fill:#a9824a"/><rect x="8" y="18" width="2" height="2" style="fill:#294656"/><rect x="10" y="4" width="2" height="2" style="fill:#294656"/><rect x="12" y="16" width="2" height="2" style="fill:#a9824a"/><rect x="12" y="30" width="2" height="2" style="fill:#011002"/><rect x="20" y="2" width="2" height="2" style="fill:#294656"/><rect x="20" y="34" width="2" height="2" style="fill:#294656"/><rect x="24" y="14" width="2" height="2" style="fill:#a9bdc5"/><rect x="24" y="16" width="2" height="2" style="fill:#011002"/><rect x="24" y="18" width="2" height="2" style="fill:#a9bdc5"/><rect x="24" y="24" width="2" height="2" style="fill:#a9bdc5"/><rect x="30" y="16" width="2" height="2" style="fill:#daefde"/><rect x="32" y="16" width="2" height="2" style="fill:#a9bdc5"/><rect x="34" y="14" width="2" height="2" style="fill:#a9bdc5"/><rect x="34" y="16" width="2" height="2" style="fill:#011002"/><rect x="34" y="18" width="2" height="2" style="fill:#a9bdc5"/><rect x="34" y="24" width="2" height="2" style="fill:#a9bdc5"/><rect x="36" y="32" width="2" height="2" style="fill:#a9bdc5"/><rect x="52" y="14" width="2" height="2" style="fill:#a9bdc5"/><rect x="52" y="16" width="2" height="2" style="fill:#011002"/><rect x="52" y="18" width="2" height="2" style="fill:#a9bdc5"/><rect x="52" y="24" width="2" height="2" style="fill:#a9bdc5"/><rect x="58" y="16" width="2" height="2" style="fill:#daefde"/><rect x="60" y="16" width="2" height="2" style="fill:#a9bdc5"/><rect x="62" y="14" width="2" height="2" style="fill:#a9bdc5"/><rect x="62" y="16" width="2" height="2" style="fill:#011002"/><rect x="62" y="18" width="2" height="2" style="fill:#a9bdc5"/><rect x="62" y="24" width="2" height="2" style="fill:#a9bdc5"/><rect x="64" y="4" width="2" height="2" style="fill:#a9bdc5"/><rect x="64" y="34" width="2" height="2" style="fill:#a9bdc5"/><rect x="66" y="34" width="2" height="2" style="fill:#294656"/></g></svg>