<?xml version="1.0" encoding="UTF-8" standalone="no"?>
<!-- Created with Inkscape (http://www.inkscape.org/) -->

<svg
   width="32"
   height="32"
   viewBox="0 0 32 32"
   version="1.1"
   id="svg1"
   inkscape:version="1.3 (0e150ed6c4, 2023-07-21)"
   sodipodi:docname="SPR_STARCUBE.svg"
   xmlns:inkscape="http://www.inkscape.org/namespaces/inkscape"
   xmlns:sodipodi="http://sodipodi.sourceforge.net/DTD/sodipodi-0.dtd"
   xmlns="http://www.w3.org/2000/svg"
   xmlns:svg="http://www.w3.org/2000/svg">
  <sodipodi:namedview
     id="namedview1"
     pagecolor="#b6b6b6"
     bordercolor="#666666"
     borderopacity="1.0"
     inkscape:showpageshadow="2"
     inkscape:pageopacity="0.0"
     inkscape:pagecheckerboard="true"
     inkscape:deskcolor="#d1d1d1"
     inkscape:document-units="px"
     showgrid="true"
     shape-rendering="crispEdges"
     inkscape:zoom="24.09375"
     inkscape:cx="16"
     inkscape:cy="16"
     inkscape:window-width="2560"
     inkscape:window-height="1351"
     inkscape:window-x="-9"
     inkscape:window-y="-9"
     inkscape:window-maximized="1"
     inkscape:current-layer="g99">
    <inkscape:grid
       id="grid1"
       units="px"
       originx="0"
       originy="0"
       spacingx="1"
       spacingy="1"
       empcolor="#0099e5"
       empopacity="0.30196078"
       color="#0099e5"
       opacity="0.14901961"
       empspacing="4"
       dotted="false"
       gridanglex="30"
       gridanglez="30"
       visible="true" />
  </sodipodi:namedview>
  <defs
     id="defs1" />
  <g
     inkscape:label="Capa 1"
     inkscape:groupmode="layer"
     id="layer1" />
  <g
     inkscape:groupmode="layer"
     inkscape:label="Capa 1"
     id="g99">
    <rect
       x="12"
       y="14"
       width="4"
       height="10"
       style="fill:#b1adc1"
       id="rect1" />
    <rect
       x="14"
       y="0"
       width="18"
       height="2"
       style="fill:#8c8194"
       id="rect4" />
    <rect
       x="14"
       y="30"
       width="18"
       height="2"
       style="fill:#42293a"
       id="rect5" />
    <rect
       x="24"
       y="8"
       width="6"
       height="6"
       style="fill:#b1adc1"
       id="rect6" />
    <rect
       x="0"
       y="0"
       width="2"
       height="16"
       style="fill:#8c8194"
       id="rect7" />
    <rect
       x="4"
       y="18"
       width="6"
       height="4"
       style="fill:#b1adc1"
       id="rect10" />
    <rect
       x="12"
       y="8"
       width="6"
       height="4"
       style="fill:#42293a"
       id="rect11" />
    <rect
       x="2"
       y="2"
       width="30"
       height="28"
       style="fill:#675567;stroke-width:5.91606"
       id="rect13" />
    <rect
       x="0"
       y="18"
       width="2"
       height="10"
       style="fill:#8c8194"
       id="rect14" />
    <rect
       x="22"
       y="20"
       width="2"
       height="10"
       style="fill:#42293a"
       id="rect16" />
    <rect
       x="2"
       y="0"
       width="8"
       height="2"
       style="fill:#8c8194"
       id="rect17" />
    <rect
       x="2"
       y="26"
       width="4"
       height="4"
       style="fill:#b1adc1"
       id="rect18" />
    <rect
       x="6"
       y="6"
       width="4"
       height="4"
       style="fill:#fffff3"
       id="rect19" />
    <rect
       x="14"
       y="24"
       width="8"
       height="2"
       style="fill:#b1adc1"
       id="rect22" />
    <rect
       x="2"
       y="30"
       width="6"
       height="2"
       style="fill:#42293a"
       id="rect25" />
    <rect
       x="8"
       y="30"
       width="6"
       height="2"
       style="fill:#8c8194"
       id="rect26" />
    <rect
       x="16"
       y="12"
       width="6"
       height="2"
       style="fill:#42293a"
       id="rect28" />
    <rect
       x="30"
       y="2"
       width="2"
       height="6"
       style="fill:#42293a"
       id="rect30" />
    <rect
       x="2"
       y="16"
       width="2"
       height="4"
       style="fill:#b1adc1"
       id="rect32" />
    <rect
       x="4"
       y="4"
       width="2"
       height="4"
       style="fill:#b1adc1"
       id="rect34" />
    <rect
       x="4"
       y="22"
       width="4"
       height="2"
       style="fill:#b1adc1"
       id="rect35" />
    <rect
       x="30"
       y="16"
       width="2"
       height="14"
       style="fill:#42293a"
       id="rect8" />
    <rect
       x="6"
       y="28"
       width="4"
       height="2"
       style="fill:#8c8194"
       id="rect36" />
    <rect
       x="8"
       y="12"
       width="4"
       height="2"
       style="fill:#42293a"
       id="rect37" />
    <rect
       x="10"
       y="0"
       width="4"
       height="2"
       style="fill:#fffff3"
       id="rect40" />
    <rect
       x="10"
       y="16"
       width="2"
       height="4"
       style="fill:#b1adc1"
       id="rect41" />
    <rect
       x="12"
       y="26"
       width="4"
       height="2"
       style="fill:#8c8194"
       id="rect42" />
    <rect
       x="14"
       y="6"
       width="4"
       height="2"
       style="fill:#42293a"
       id="rect43" />
    <rect
       x="16"
       y="14"
       width="2"
       height="4"
       style="fill:#42293a"
       id="rect44" />
    <rect
       x="24"
       y="22"
       width="4"
       height="2"
       style="fill:#42293a"
       id="rect48" />
    <rect
       x="26"
       y="14"
       width="4"
       height="2"
       style="fill:#b1adc1"
       id="rect49" />
    <rect
       x="30"
       y="10"
       width="2"
       height="4"
       style="fill:#b1adc1"
       id="rect50" />
    <rect
       x="0"
       y="16"
       width="2"
       height="2"
       style="fill:#fffff3"
       id="rect51" />
    <rect
       x="0"
       y="28"
       width="2"
       height="2"
       style="fill:#fffff3"
       id="rect52" />
    <rect
       x="0"
       y="30"
       width="2"
       height="2"
       style="fill:#8c8194"
       id="rect53" />
    <rect
       x="2"
       y="8"
       width="2"
       height="2"
       style="fill:#b1adc1"
       id="rect54" />
    <rect
       x="2"
       y="20"
       width="2"
       height="2"
       style="fill:#8c8194"
       id="rect55" />
    <rect
       x="4"
       y="8"
       width="2"
       height="2"
       style="fill:#fffff3"
       id="rect56" />
    <rect
       x="4"
       y="16"
       width="2"
       height="2"
       style="fill:#8c8194"
       id="rect57" />
    <rect
       x="4"
       y="24"
       width="2"
       height="2"
       style="fill:#b1adc1"
       id="rect58" />
    <rect
       x="6"
       y="10"
       width="2"
       height="2"
       style="fill:#fffff3"
       id="rect60" />
    <rect
       x="6"
       y="12"
       width="2"
       height="2"
       style="fill:#b1adc1"
       id="rect61" />
    <rect
       x="6"
       y="14"
       width="2"
       height="2"
       style="fill:#42293a"
       id="rect62" />
    <rect
       x="6"
       y="26"
       width="2"
       height="2"
       style="fill:#b1adc1"
       id="rect64" />
    <rect
       x="8"
       y="4"
       width="2"
       height="2"
       style="fill:#b1adc1"
       id="rect65" />
    <rect
       x="8"
       y="16"
       width="2"
       height="2"
       style="fill:#8c8194"
       id="rect67" />
    <rect
       x="8"
       y="22"
       width="2"
       height="2"
       style="fill:#8c8194"
       id="rect68" />
    <rect
       x="10"
       y="6"
       width="2"
       height="2"
       style="fill:#42293a"
       id="rect69" />
    <rect
       x="10"
       y="8"
       width="2"
       height="2"
       style="fill:#b1adc1"
       id="rect70" />
    <rect
       x="10"
       y="10"
       width="2"
       height="2"
       style="fill:#42293a"
       id="rect71" />
    <rect
       x="10"
       y="20"
       width="2"
       height="2"
       style="fill:#8c8194"
       id="rect72" />
    <rect
       x="12"
       y="2"
       width="2"
       height="2"
       style="fill:#b1adc1"
       id="rect75" />
    <rect
       x="12"
       y="28"
       width="2"
       height="2"
       style="fill:#b1adc1"
       id="rect78" />
    <rect
       x="14"
       y="12"
       width="2"
       height="2"
       style="fill:#b1adc1"
       id="rect79" />
    <rect
       x="16"
       y="22"
       width="2"
       height="2"
       style="fill:#b1adc1"
       id="rect81" />
    <rect
       x="18"
       y="4"
       width="2"
       height="2"
       style="fill:#42293a"
       id="rect82" />
    <rect
       x="18"
       y="22"
       width="2"
       height="2"
       style="fill:#8c8194"
       id="rect83" />
    <rect
       x="20"
       y="22"
       width="2"
       height="2"
       style="fill:#42293a"
       id="rect84" />
    <rect
       x="20"
       y="26"
       width="2"
       height="2"
       style="fill:#42293a"
       id="rect85" />
    <rect
       x="22"
       y="6"
       width="2"
       height="2"
       style="fill:#b1adc1"
       id="rect86" />
    <rect
       x="22"
       y="8"
       width="2"
       height="2"
       style="fill:#8c8194"
       id="rect87" />
    <rect
       x="22"
       y="12"
       width="2"
       height="2"
       style="fill:#8c8194"
       id="rect89" />
    <rect
       x="22"
       y="14"
       width="2"
       height="2"
       style="fill:#b1adc1"
       id="rect90" />
    <rect
       x="24"
       y="6"
       width="2"
       height="2"
       style="fill:#8c8194"
       id="rect91" />
    <rect
       x="24"
       y="14"
       width="2"
       height="2"
       style="fill:#8c8194"
       id="rect92" />
    <rect
       x="24"
       y="24"
       width="2"
       height="2"
       style="fill:#42293a"
       id="rect93" />
    <rect
       x="28"
       y="6"
       width="2"
       height="2"
       style="fill:#b1adc1"
       id="rect96" />
    <rect
       x="28"
       y="16"
       width="2"
       height="2"
       style="fill:#b1adc1"
       id="rect97" />
  </g>
</svg>
