<?xml version="1.0" encoding="UTF-8" standalone="no"?>
<!-- Created with Inkscape (http://www.inkscape.org/) -->

<svg
   width="32"
   height="32"
   viewBox="0 0 32 32"
   version="1.1"
   id="svg1"
   inkscape:version="1.3 (0e150ed6c4, 2023-07-21)"
   sodipodi:docname="PrtCave_002.svg"
   xmlns:inkscape="http://www.inkscape.org/namespaces/inkscape"
   xmlns:sodipodi="http://sodipodi.sourceforge.net/DTD/sodipodi-0.dtd"
   xmlns="http://www.w3.org/2000/svg"
   xmlns:svg="http://www.w3.org/2000/svg">
  <sodipodi:namedview
     id="namedview1"
     pagecolor="#b6b6b6"
     bordercolor="#666666"
     borderopacity="1.0"
     inkscape:showpageshadow="2"
     inkscape:pageopacity="0.0"
     inkscape:pagecheckerboard="true"
     inkscape:deskcolor="#d1d1d1"
     inkscape:document-units="px"
     showgrid="true"
     shape-rendering="crispEdges"
     inkscape:zoom="17.036854"
     inkscape:cx="13.705582"
     inkscape:cy="15.818648"
     inkscape:window-width="1920"
     inkscape:window-height="1009"
     inkscape:window-x="-8"
     inkscape:window-y="-8"
     inkscape:window-maximized="1"
     inkscape:current-layer="g95">
    <inkscape:grid
       id="grid1"
       units="px"
       originx="0"
       originy="0"
       spacingx="1"
       spacingy="1"
       empcolor="#0099e5"
       empopacity="0.30196078"
       color="#0099e5"
       opacity="0.14901961"
       empspacing="4"
       dotted="false"
       gridanglex="30"
       gridanglez="30"
       visible="true" />
  </sodipodi:namedview>
  <defs
     id="defs1" />
  <g
     inkscape:label="Capa 1"
     inkscape:groupmode="layer"
     id="layer1" />
  <g
     inkscape:groupmode="layer"
     inkscape:label="Capa 1"
     id="g95">
    <rect
       x="0"
       y="0"
       width="30"
       height="30"
       style="fill:#678098;stroke-width:7.5"
       id="rect11" />
    <rect
       x="2"
       y="2"
       width="30"
       height="30"
       style="fill:#14192b;stroke-width:7.50002"
       id="rect15" />
    <rect
       x="2"
       y="2"
       width="28"
       height="28"
       style="fill:#3d4c61;stroke-width:2.33334"
       id="rect1" />
    <rect
       x="4"
       y="30"
       width="16"
       height="2"
       style="fill:#00000f"
       id="rect6" />
    <rect
       x="8"
       y="14"
       width="6"
       height="2"
       style="fill:#293346"
       id="rect17" />
    <rect
       x="4"
       y="10"
       width="4"
       height="2"
       style="fill:#293346"
       id="rect22" />
    <rect
       x="10"
       y="16"
       width="2"
       height="4"
       style="fill:#14192b"
       id="rect25" />
    <rect
       x="12"
       y="24"
       width="2"
       height="4"
       style="fill:#293346"
       id="rect27" />
    <rect
       x="14"
       y="16"
       width="4"
       height="2"
       style="fill:#293346"
       id="rect28" />
    <rect
       x="24"
       y="18"
       width="4"
       height="2"
       style="fill:#293346"
       id="rect33" />
    <rect
       x="24"
       y="20"
       width="2"
       height="4"
       style="fill:#14192b"
       id="rect34" />
    <rect
       x="26"
       y="26"
       width="4"
       height="2"
       style="fill:#293346"
       id="rect37" />
    <rect
       x="28"
       y="30"
       width="4"
       height="2"
       style="fill:#00000f"
       id="rect39" />
    <rect
       x="30"
       y="4"
       width="2"
       height="4"
       style="fill:#00000f"
       id="rect40" />
    <rect
       x="30"
       y="16"
       width="2"
       height="4"
       style="fill:#00000f"
       id="rect41" />
    <rect
       x="30"
       y="24"
       width="2"
       height="4"
       style="fill:#00000f"
       id="rect43" />
    <rect
       x="0"
       y="8"
       width="2"
       height="2"
       style="fill:#3d4c61"
       id="rect44" />
    <rect
       x="0"
       y="20"
       width="2"
       height="2"
       style="fill:#3d4c61"
       id="rect45" />
    <rect
       x="0"
       y="30"
       width="2"
       height="2"
       style="fill:#3d4c61"
       id="rect46" />
    <rect
       x="2"
       y="4"
       width="2"
       height="2"
       style="fill:#293346"
       id="rect48" />
    <rect
       x="2"
       y="6"
       width="2"
       height="2"
       style="fill:#14192b"
       id="rect49" />
    <rect
       x="2"
       y="8"
       width="2"
       height="2"
       style="fill:#293346"
       id="rect50" />
    <rect
       x="4"
       y="8"
       width="2"
       height="2"
       style="fill:#14192b"
       id="rect53" />
    <rect
       x="6"
       y="28"
       width="2"
       height="2"
       style="fill:#293346"
       id="rect54" />
    <rect
       x="8"
       y="0"
       width="2"
       height="2"
       style="fill:#3d4c61"
       id="rect55" />
    <rect
       x="8"
       y="12"
       width="2"
       height="2"
       style="fill:#293346"
       id="rect57" />
    <rect
       x="8"
       y="26"
       width="2"
       height="2"
       style="fill:#293346"
       id="rect58" />
    <rect
       x="8"
       y="28"
       width="2"
       height="2"
       style="fill:#14192b"
       id="rect59" />
    <rect
       x="10"
       y="26"
       width="2"
       height="2"
       style="fill:#14192b"
       id="rect60" />
    <rect
       x="12"
       y="18"
       width="2"
       height="2"
       style="fill:#14192b"
       id="rect62" />
    <rect
       x="12"
       y="20"
       width="2"
       height="2"
       style="fill:#293346"
       id="rect63" />
    <rect
       x="12"
       y="22"
       width="2"
       height="2"
       style="fill:#14192b"
       id="rect64" />
    <rect
       x="14"
       y="22"
       width="2"
       height="2"
       style="fill:#293346"
       id="rect66" />
    <rect
       x="16"
       y="8"
       width="2"
       height="2"
       style="fill:#293346"
       id="rect67" />
    <rect
       x="16"
       y="18"
       width="2"
       height="2"
       style="fill:#293346"
       id="rect68" />
    <rect
       x="16"
       y="20"
       width="2"
       height="2"
       style="fill:#52667c"
       id="rect69" />
    <rect
       x="18"
       y="10"
       width="2"
       height="2"
       style="fill:#14192b"
       id="rect70" />
    <rect
       x="18"
       y="14"
       width="2"
       height="2"
       style="fill:#293346"
       id="rect72" />
    <rect
       x="20"
       y="0"
       width="2"
       height="2"
       style="fill:#3d4c61"
       id="rect73" />
    <rect
       x="20"
       y="12"
       width="2"
       height="2"
       style="fill:#00000f"
       id="rect75" />
    <rect
       x="22"
       y="10"
       width="2"
       height="2"
       style="fill:#293346"
       id="rect77" />
    <rect
       x="22"
       y="12"
       width="2"
       height="2"
       style="fill:#52667c"
       id="rect78" />
    <rect
       x="22"
       y="22"
       width="2"
       height="2"
       style="fill:#293346"
       id="rect79" />
    <rect
       x="24"
       y="0"
       width="2"
       height="2"
       style="fill:#3d4c61"
       id="rect80" />
    <rect
       x="24"
       y="10"
       width="2"
       height="2"
       style="fill:#52667c"
       id="rect81" />
    <rect
       x="24"
       y="24"
       width="2"
       height="2"
       style="fill:#293346"
       id="rect82" />
    <rect
       x="24"
       y="30"
       width="2"
       height="2"
       style="fill:#00000f"
       id="rect84" />
    <rect
       x="26"
       y="8"
       width="2"
       height="2"
       style="fill:#293346"
       id="rect85" />
    <rect
       x="26"
       y="24"
       width="2"
       height="2"
       style="fill:#52667c"
       id="rect86" />
    <rect
       x="28"
       y="6"
       width="2"
       height="2"
       style="fill:#293346"
       id="rect88" />
    <rect
       x="28"
       y="8"
       width="2"
       height="2"
       style="fill:#14192b"
       id="rect89" />
    <rect
       x="28"
       y="16"
       width="2"
       height="2"
       style="fill:#293346"
       id="rect90" />
    <rect
       x="30"
       y="0"
       width="2"
       height="2"
       style="fill:#3d4c61"
       id="rect93" />
  </g>
</svg>
