<!-- Created with Inkscape (http://www.inkscape.org/) --><svg xmlns:inkscape="http://www.inkscape.org/namespaces/inkscape" xmlns:sodipodi="http://sodipodi.sourceforge.net/DTD/sodipodi-0.dtd" xmlns="http://www.w3.org/2000/svg" xmlns:svg="http://www.w3.org/2000/svg" width="32" height="32" viewBox="0 0 32 32" version="1.1" id="svg1" inkscape:version="1.3 (0e150ed6c4, 2023-07-21)" sodipodi:docname="PLANTILLA.svg">
  <sodipodi:namedview id="namedview1" pagecolor="#b6b6b6" bordercolor="#666666" borderopacity="1.0" inkscape:showpageshadow="2" inkscape:pageopacity="0.0" inkscape:pagecheckerboard="true" inkscape:deskcolor="#d1d1d1" inkscape:document-units="px" showgrid="true" shape-rendering="crispEdges" inkscape:zoom="24.09375" inkscape:cx="16" inkscape:cy="16" inkscape:window-width="1920" inkscape:window-height="1009" inkscape:window-x="1912" inkscape:window-y="-8" inkscape:window-maximized="1" inkscape:current-layer="layer1">
    <inkscape:grid id="grid1" units="px" originx="0" originy="0" spacingx="1" spacingy="1" empcolor="#0099e5" empopacity="0.30196078" color="#0099e5" opacity="0.14901961" empspacing="4" dotted="false" gridanglex="30" gridanglez="30" visible="true"/>
  </sodipodi:namedview>
  <defs id="defs1"/>
  <g inkscape:label="Capa 1" inkscape:groupmode="layer" id="layer1"/>
<g inkscape:groupmode="layer" inkscape:label="Capa 1"><rect x="14" y="30" width="12" height="2" style="fill:#14192b"/><rect x="14" y="26" width="6" height="2" style="fill:#52667c"/><rect x="0" y="30" width="4" height="2" style="fill:#293346"/><rect x="2" y="4" width="4" height="2" style="fill:#002598"/><rect x="6" y="6" width="4" height="2" style="fill:#002598"/><rect x="10" y="4" width="4" height="2" style="fill:#3163ad"/><rect x="12" y="28" width="4" height="2" style="fill:#52667c"/><rect x="18" y="4" width="4" height="2" style="fill:#002598"/><rect x="18" y="28" width="4" height="2" style="fill:#14192b"/><rect x="22" y="6" width="4" height="2" style="fill:#002598"/><rect x="26" y="4" width="4" height="2" style="fill:#002598"/><rect x="0" y="2" width="2" height="2" style="fill:#3163ad"/><rect x="4" y="8" width="2" height="2" style="fill:#3163ad"/><rect x="4" y="30" width="2" height="2" style="fill:#3d4c61"/><rect x="6" y="30" width="2" height="2" style="fill:#14192b"/><rect x="8" y="26" width="2" height="2" style="fill:#002598"/><rect x="10" y="30" width="2" height="2" style="fill:#52667c"/><rect x="12" y="30" width="2" height="2" style="fill:#293346"/><rect x="14" y="2" width="2" height="2" style="fill:#3163ad"/><rect x="14" y="8" width="2" height="2" style="fill:#002598"/><rect x="16" y="2" width="2" height="2" style="fill:#002598"/><rect x="16" y="14" width="2" height="2" style="fill:#002598"/><rect x="16" y="28" width="2" height="2" style="fill:#293346"/><rect x="20" y="26" width="2" height="2" style="fill:#14192b"/><rect x="24" y="8" width="2" height="2" style="fill:#3163ad"/><rect x="24" y="18" width="2" height="2" style="fill:#3163ad"/><rect x="26" y="30" width="2" height="2" style="fill:#3d4c61"/><rect x="28" y="30" width="2" height="2" style="fill:#14192b"/><rect x="30" y="2" width="2" height="2" style="fill:#3163ad"/></g></svg>