<?xml version="1.0" encoding="UTF-8" standalone="no"?>
<!-- Created with Inkscape (http://www.inkscape.org/) -->

<svg
   width="32"
   height="32"
   viewBox="0 0 32 32"
   version="1.1"
   id="svg1"
   inkscape:version="1.3 (0e150ed6c4, 2023-07-21)"
   sodipodi:docname="PrtCave_034.svg"
   xmlns:inkscape="http://www.inkscape.org/namespaces/inkscape"
   xmlns:sodipodi="http://sodipodi.sourceforge.net/DTD/sodipodi-0.dtd"
   xmlns="http://www.w3.org/2000/svg"
   xmlns:svg="http://www.w3.org/2000/svg">
  <sodipodi:namedview
     id="namedview1"
     pagecolor="#b6b6b6"
     bordercolor="#666666"
     borderopacity="1.0"
     inkscape:showpageshadow="2"
     inkscape:pageopacity="0.0"
     inkscape:pagecheckerboard="true"
     inkscape:deskcolor="#d1d1d1"
     inkscape:document-units="px"
     showgrid="true"
     shape-rendering="crispEdges"
     inkscape:zoom="17.036854"
     inkscape:cx="12.94253"
     inkscape:cy="17.05127"
     inkscape:window-width="1920"
     inkscape:window-height="1009"
     inkscape:window-x="-8"
     inkscape:window-y="-8"
     inkscape:window-maximized="1"
     inkscape:current-layer="g74">
    <inkscape:grid
       id="grid1"
       units="px"
       originx="0"
       originy="0"
       spacingx="1"
       spacingy="1"
       empcolor="#0099e5"
       empopacity="0.30196078"
       color="#0099e5"
       opacity="0.14901961"
       empspacing="4"
       dotted="false"
       gridanglex="30"
       gridanglez="30"
       visible="true" />
  </sodipodi:namedview>
  <defs
     id="defs1" />
  <g
     inkscape:label="Capa 1"
     inkscape:groupmode="layer"
     id="layer1" />
  <g
     inkscape:groupmode="layer"
     inkscape:label="Capa 1"
     id="g74">
    <rect
       x="0"
       y="0"
       width="32"
       height="32"
       style="fill:#52667c;stroke-width:2.52982"
       id="rect1" />
    <rect
       x="4"
       y="16"
       width="26"
       height="10"
       style="fill:#3d4c61;stroke-width:1.90029"
       id="rect2" />
    <rect
       x="4"
       y="26"
       width="18"
       height="6"
       style="fill:#3d4c61;stroke-width:1.5"
       id="rect5" />
    <rect
       x="0"
       y="4"
       width="8"
       height="4"
       style="fill:#14192b"
       id="rect7" />
    <rect
       x="0"
       y="28"
       width="4"
       height="4"
       style="fill:#3d4c61;stroke-width:0.707107"
       id="rect8" />
    <rect
       x="12"
       y="0"
       width="12"
       height="4"
       style="fill:#14192b;stroke-width:1.22474"
       id="rect9" />
    <rect
       x="28"
       y="18"
       width="4"
       height="8"
       style="fill:#14192b"
       id="rect10" />
    <rect
       x="30"
       y="2"
       width="2"
       height="14"
       style="fill:#3d4c61"
       id="rect11" />
    <rect
       x="0"
       y="8"
       width="10"
       height="2"
       style="fill:#00000f"
       id="rect12" />
    <rect
       x="4"
       y="14"
       width="2"
       height="2"
       style="fill:#3d4c61;stroke-width:0.57735"
       id="rect17" />
    <rect
       x="8"
       y="2"
       width="2"
       height="6"
       style="fill:#00000f"
       id="rect18" />
    <rect
       x="8"
       y="18"
       width="6"
       height="2"
       style="fill:#293346"
       id="rect20" />
    <rect
       x="10"
       y="4"
       width="6"
       height="2"
       style="fill:#14192b"
       id="rect21" />
    <rect
       x="14"
       y="20"
       width="2"
       height="6"
       style="fill:#293346"
       id="rect22" />
    <rect
       x="2"
       y="0"
       width="10"
       height="4"
       style="fill:#3d4c61;stroke-width:2.23607"
       id="rect25" />
    <rect
       x="2"
       y="24"
       width="2"
       height="4"
       style="fill:#3d4c61"
       id="rect26" />
    <rect
       x="4"
       y="10"
       width="4"
       height="2"
       style="fill:#00000f"
       id="rect27" />
    <rect
       x="6"
       y="0"
       width="2"
       height="4"
       style="fill:#00000f"
       id="rect28" />
    <rect
       x="6"
       y="14"
       width="2"
       height="4"
       style="fill:#293346"
       id="rect29" />
    <rect
       x="16"
       y="24"
       width="4"
       height="2"
       style="fill:#3d4c61"
       id="rect34" />
    <rect
       x="26"
       y="22"
       width="2"
       height="4"
       style="fill:#14192b"
       id="rect37" />
    <rect
       x="4"
       y="2"
       width="2"
       height="2"
       style="fill:#14192b"
       id="rect40" />
    <rect
       x="4"
       y="12"
       width="2"
       height="2"
       style="fill:#293346"
       id="rect41" />
    <rect
       x="6"
       y="12"
       width="2"
       height="2"
       style="fill:#00000f"
       id="rect42" />
    <rect
       x="8"
       y="30"
       width="2"
       height="2"
       style="fill:#293346"
       id="rect45" />
    <rect
       x="10"
       y="2"
       width="2"
       height="2"
       style="fill:#14192b"
       id="rect46" />
    <rect
       x="10"
       y="6"
       width="2"
       height="2"
       style="fill:#00000f"
       id="rect47" />
    <rect
       x="10"
       y="28"
       width="2"
       height="2"
       style="fill:#293346"
       id="rect48" />
    <rect
       x="10"
       y="30"
       width="2"
       height="2"
       style="fill:#14192b"
       id="rect49" />
    <rect
       x="12"
       y="6"
       width="2"
       height="2"
       style="fill:#293346"
       id="rect50" />
    <rect
       x="12"
       y="20"
       width="2"
       height="2"
       style="fill:#293346"
       id="rect51" />
    <rect
       x="12"
       y="26"
       width="2"
       height="2"
       style="fill:#293346"
       id="rect52" />
    <rect
       x="14"
       y="6"
       width="2"
       height="2"
       style="fill:#3d4c61"
       id="rect53" />
    <rect
       x="16"
       y="4"
       width="2"
       height="2"
       style="fill:#293346"
       id="rect55" />
    <rect
       x="16"
       y="22"
       width="2"
       height="2"
       style="fill:#00000f"
       id="rect56" />
    <rect
       x="18"
       y="4"
       width="2"
       height="2"
       style="fill:#3d4c61"
       id="rect57" />
    <rect
       x="18"
       y="22"
       width="2"
       height="2"
       style="fill:#293346"
       id="rect58" />
    <rect
       x="20"
       y="2"
       width="2"
       height="2"
       style="fill:#293346"
       id="rect59" />
    <rect
       x="20"
       y="24"
       width="2"
       height="2"
       style="fill:#293346"
       id="rect61" />
    <rect
       x="22"
       y="2"
       width="2"
       height="2"
       style="fill:#3d4c61"
       id="rect62" />
    <rect
       x="24"
       y="0"
       width="2"
       height="2"
       style="fill:#3d4c61"
       id="rect64" />
    <rect
       x="24"
       y="30"
       width="2"
       height="2"
       style="fill:#3d4c61"
       id="rect66" />
    <rect
       x="26"
       y="28"
       width="2"
       height="2"
       style="fill:#3d4c61"
       id="rect67" />
    <rect
       x="26"
       y="30"
       width="2"
       height="2"
       style="fill:#14192b"
       id="rect68" />
    <rect
       x="28"
       y="28"
       width="2"
       height="2"
       style="fill:#14192b"
       id="rect70" />
    <rect
       x="30"
       y="16"
       width="2"
       height="2"
       style="fill:#14192b"
       id="rect72" />
    <rect
       x="30"
       y="26"
       width="2"
       height="2"
       style="fill:#14192b"
       id="rect73" />
    <rect
       x="30"
       y="28"
       width="2"
       height="2"
       style="fill:#00000f"
       id="rect74" />
  </g>
</svg>
