<?xml version="1.0" encoding="UTF-8" standalone="no"?>
<!-- Created with Inkscape (http://www.inkscape.org/) -->

<svg
   width="32"
   height="32"
   viewBox="0 0 32 32"
   version="1.1"
   id="svg1"
   inkscape:version="1.3 (0e150ed6c4, 2023-07-21)"
   sodipodi:docname="PrtCave_050.svg"
   xmlns:inkscape="http://www.inkscape.org/namespaces/inkscape"
   xmlns:sodipodi="http://sodipodi.sourceforge.net/DTD/sodipodi-0.dtd"
   xmlns="http://www.w3.org/2000/svg"
   xmlns:svg="http://www.w3.org/2000/svg">
  <sodipodi:namedview
     id="namedview1"
     pagecolor="#b6b6b6"
     bordercolor="#666666"
     borderopacity="1.0"
     inkscape:showpageshadow="2"
     inkscape:pageopacity="0.0"
     inkscape:pagecheckerboard="true"
     inkscape:deskcolor="#d1d1d1"
     inkscape:document-units="px"
     showgrid="true"
     shape-rendering="crispEdges"
     inkscape:zoom="17.036854"
     inkscape:cx="14.292545"
     inkscape:cy="15.877344"
     inkscape:window-width="1920"
     inkscape:window-height="1009"
     inkscape:window-x="-8"
     inkscape:window-y="-8"
     inkscape:window-maximized="1"
     inkscape:current-layer="g106">
    <inkscape:grid
       id="grid1"
       units="px"
       originx="0"
       originy="0"
       spacingx="1"
       spacingy="1"
       empcolor="#0099e5"
       empopacity="0.30196078"
       color="#0099e5"
       opacity="0.14901961"
       empspacing="4"
       dotted="false"
       gridanglex="30"
       gridanglez="30"
       visible="true" />
  </sodipodi:namedview>
  <defs
     id="defs1" />
  <g
     inkscape:label="Capa 1"
     inkscape:groupmode="layer"
     id="layer1" />
  <g
     inkscape:groupmode="layer"
     inkscape:label="Capa 1"
     id="g106">
    <rect
       x="0"
       y="0"
       width="32"
       height="32"
       style="fill:#14192b;stroke-width:4.00001"
       id="rect1" />
    <rect
       x="24"
       y="4"
       width="8"
       height="8"
       style="fill:#52667c;stroke-width:1.1547"
       id="rect2" />
    <rect
       x="12"
       y="18"
       width="4"
       height="8"
       style="fill:#52667c"
       id="rect3" />
    <rect
       x="20"
       y="14"
       width="6"
       height="8"
       style="fill:#3d4c61;stroke-width:1.22474"
       id="rect4" />
    <rect
       x="10"
       y="0"
       width="12"
       height="2"
       style="fill:#3d4c61"
       id="rect8" />
    <rect
       x="16"
       y="20"
       width="4"
       height="6"
       style="fill:#3d4c61;stroke-width:1"
       id="rect10" />
    <rect
       x="26"
       y="22"
       width="6"
       height="4"
       style="fill:#52667c"
       id="rect11" />
    <rect
       x="0"
       y="22"
       width="2"
       height="8"
       style="fill:#00000f"
       id="rect13" />
    <rect
       x="2"
       y="26"
       width="4"
       height="4"
       style="fill:#3d4c61"
       id="rect15" />
    <rect
       x="4"
       y="16"
       width="8"
       height="2"
       style="fill:#3d4c61"
       id="rect16" />
    <rect
       x="8"
       y="24"
       width="4"
       height="4"
       style="fill:#52667c"
       id="rect17" />
    <rect
       x="8"
       y="28"
       width="4"
       height="4"
       style="fill:#3d4c61"
       id="rect18" />
    <rect
       x="12"
       y="2"
       width="20"
       height="2"
       style="fill:#293346;stroke-width:1.58114"
       id="rect19" />
    <rect
       x="12"
       y="8"
       width="4"
       height="4"
       style="fill:#3d4c61"
       id="rect20" />
    <rect
       x="20"
       y="10"
       width="4"
       height="4"
       style="fill:#52667c"
       id="rect23" />
    <rect
       x="30"
       y="6"
       width="2"
       height="8"
       style="fill:#3d4c61"
       id="rect25" />
    <rect
       x="0"
       y="0"
       width="2"
       height="6"
       style="fill:#293346"
       id="rect26" />
    <rect
       x="2"
       y="6"
       width="2"
       height="6"
       style="fill:#00000f"
       id="rect27" />
    <rect
       x="2"
       y="18"
       width="6"
       height="2"
       style="fill:#3d4c61"
       id="rect28" />
    <rect
       x="24"
       y="26"
       width="6"
       height="2"
       style="fill:#3d4c61"
       id="rect30" />
    <rect
       x="0"
       y="30"
       width="4"
       height="2"
       style="fill:#3d4c61"
       id="rect33" />
    <rect
       x="6"
       y="26"
       width="2"
       height="4"
       style="fill:#52667c"
       id="rect34" />
    <rect
       x="12"
       y="14"
       width="4"
       height="2"
       style="fill:#00000f"
       id="rect36" />
    <rect
       x="12"
       y="26"
       width="4"
       height="2"
       style="fill:#3d4c61"
       id="rect37" />
    <rect
       x="14"
       y="6"
       width="4"
       height="2"
       style="fill:#3d4c61"
       id="rect38" />
    <rect
       x="14"
       y="16"
       width="4"
       height="2"
       style="fill:#52667c"
       id="rect39" />
    <rect
       x="18"
       y="16"
       width="2"
       height="4"
       style="fill:#3d4c61"
       id="rect41" />
    <rect
       x="18"
       y="24"
       width="4"
       height="2"
       style="fill:#293346"
       id="rect42" />
    <rect
       x="20"
       y="4"
       width="4"
       height="2"
       style="fill:#293346"
       id="rect43" />
    <rect
       x="20"
       y="16"
       width="2"
       height="4"
       style="fill:#293346"
       id="rect44" />
    <rect
       x="20"
       y="26"
       width="4"
       height="2"
       style="fill:#00000f"
       id="rect45" />
    <rect
       x="22"
       y="28"
       width="4"
       height="2"
       style="fill:#00000f"
       id="rect46" />
    <rect
       x="26"
       y="0"
       width="4"
       height="2"
       style="fill:#52667c"
       id="rect47" />
    <rect
       x="26"
       y="12"
       width="2"
       height="4"
       style="fill:#3d4c61"
       id="rect48" />
    <rect
       x="26"
       y="28"
       width="2"
       height="4"
       style="fill:#3d4c61"
       id="rect49" />
    <rect
       x="28"
       y="28"
       width="2"
       height="4"
       style="fill:#293346"
       id="rect51" />
    <rect
       x="0"
       y="10"
       width="2"
       height="2"
       style="fill:#00000f"
       id="rect53" />
    <rect
       x="2"
       y="20"
       width="2"
       height="2"
       style="fill:#3d4c61"
       id="rect55" />
    <rect
       x="4"
       y="4"
       width="2"
       height="2"
       style="fill:#00000f"
       id="rect56" />
    <rect
       x="4"
       y="20"
       width="2"
       height="2"
       style="fill:#293346"
       id="rect58" />
    <rect
       x="4"
       y="30"
       width="2"
       height="2"
       style="fill:#00000f"
       id="rect59" />
    <rect
       x="6"
       y="0"
       width="2"
       height="2"
       style="fill:#293346"
       id="rect60" />
    <rect
       x="6"
       y="2"
       width="2"
       height="2"
       style="fill:#00000f"
       id="rect61" />
    <rect
       x="6"
       y="14"
       width="2"
       height="2"
       style="fill:#3d4c61"
       id="rect62" />
    <rect
       x="6"
       y="30"
       width="2"
       height="2"
       style="fill:#3d4c61"
       id="rect63" />
    <rect
       x="8"
       y="14"
       width="2"
       height="2"
       style="fill:#293346"
       id="rect64" />
    <rect
       x="8"
       y="18"
       width="2"
       height="2"
       style="fill:#293346"
       id="rect65" />
    <rect
       x="10"
       y="22"
       width="2"
       height="2"
       style="fill:#52667c"
       id="rect70" />
    <rect
       x="12"
       y="16"
       width="2"
       height="2"
       style="fill:#293346"
       id="rect73" />
    <rect
       x="12"
       y="28"
       width="2"
       height="2"
       style="fill:#3d4c61"
       id="rect74" />
    <rect
       x="12"
       y="30"
       width="2"
       height="2"
       style="fill:#293346"
       id="rect75" />
    <rect
       x="14"
       y="12"
       width="2"
       height="2"
       style="fill:#00000f"
       id="rect76" />
    <rect
       x="14"
       y="28"
       width="2"
       height="2"
       style="fill:#293346"
       id="rect77" />
    <rect
       x="16"
       y="8"
       width="2"
       height="2"
       style="fill:#293346"
       id="rect78" />
    <rect
       x="16"
       y="18"
       width="2"
       height="2"
       style="fill:#52667c"
       id="rect80" />
    <rect
       x="18"
       y="4"
       width="2"
       height="2"
       style="fill:#3d4c61"
       id="rect82" />
    <rect
       x="18"
       y="6"
       width="2"
       height="2"
       style="fill:#293346"
       id="rect83" />
    <rect
       x="18"
       y="10"
       width="2"
       height="2"
       style="fill:#293346"
       id="rect84" />
    <rect
       x="20"
       y="2"
       width="2"
       height="2"
       style="fill:#3d4c61"
       id="rect85" />
    <rect
       x="22"
       y="0"
       width="2"
       height="2"
       style="fill:#52667c"
       id="rect89" />
    <rect
       x="22"
       y="6"
       width="2"
       height="2"
       style="fill:#293346"
       id="rect90" />
    <rect
       x="22"
       y="8"
       width="2"
       height="2"
       style="fill:#52667c"
       id="rect91" />
    <rect
       x="22"
       y="22"
       width="2"
       height="2"
       style="fill:#293346"
       id="rect92" />
    <rect
       x="22"
       y="24"
       width="2"
       height="2"
       style="fill:#3d4c61"
       id="rect93" />
    <rect
       x="24"
       y="12"
       width="2"
       height="2"
       style="fill:#52667c"
       id="rect95" />
    <rect
       x="24"
       y="22"
       width="2"
       height="2"
       style="fill:#3d4c61"
       id="rect96" />
    <rect
       x="24"
       y="24"
       width="2"
       height="2"
       style="fill:#52667c"
       id="rect97" />
    <rect
       x="28"
       y="20"
       width="2"
       height="2"
       style="fill:#293346"
       id="rect99" />
    <rect
       x="30"
       y="0"
       width="2"
       height="2"
       style="fill:#3d4c61"
       id="rect100" />
    <rect
       x="30"
       y="18"
       width="2"
       height="2"
       style="fill:#293346"
       id="rect102" />
    <rect
       x="30"
       y="20"
       width="2"
       height="2"
       style="fill:#52667c"
       id="rect103" />
    <rect
       x="30"
       y="28"
       width="2"
       height="2"
       style="fill:#00000f"
       id="rect105" />
  </g>
</svg>
