<?xml version="1.0" encoding="UTF-8" standalone="no"?>
<!-- Created with Inkscape (http://www.inkscape.org/) -->

<svg
   width="32"
   height="32"
   viewBox="0 0 32 32"
   version="1.1"
   id="svg1"
   inkscape:version="1.3 (0e150ed6c4, 2023-07-21)"
   sodipodi:docname="PrtCave_049.svg"
   xmlns:inkscape="http://www.inkscape.org/namespaces/inkscape"
   xmlns:sodipodi="http://sodipodi.sourceforge.net/DTD/sodipodi-0.dtd"
   xmlns="http://www.w3.org/2000/svg"
   xmlns:svg="http://www.w3.org/2000/svg">
  <sodipodi:namedview
     id="namedview1"
     pagecolor="#b6b6b6"
     bordercolor="#666666"
     borderopacity="1.0"
     inkscape:showpageshadow="2"
     inkscape:pageopacity="0.0"
     inkscape:pagecheckerboard="true"
     inkscape:deskcolor="#d1d1d1"
     inkscape:document-units="px"
     showgrid="true"
     shape-rendering="crispEdges"
     inkscape:zoom="17.036854"
     inkscape:cx="8.7750943"
     inkscape:cy="14.116456"
     inkscape:window-width="1920"
     inkscape:window-height="1009"
     inkscape:window-x="-8"
     inkscape:window-y="-8"
     inkscape:window-maximized="1"
     inkscape:current-layer="g80">
    <inkscape:grid
       id="grid1"
       units="px"
       originx="0"
       originy="0"
       spacingx="1"
       spacingy="1"
       empcolor="#0099e5"
       empopacity="0.30196078"
       color="#0099e5"
       opacity="0.14901961"
       empspacing="4"
       dotted="false"
       gridanglex="30"
       gridanglez="30"
       visible="true" />
  </sodipodi:namedview>
  <defs
     id="defs1" />
  <g
     inkscape:label="Capa 1"
     inkscape:groupmode="layer"
     id="layer1" />
  <g
     inkscape:groupmode="layer"
     inkscape:label="Capa 1"
     id="g80">
    <rect
       x="-7.1054274e-15"
       y="4.4408921e-16"
       width="32"
       height="32"
       style="fill:#3d4c61;stroke-width:2.92119"
       id="rect1" />
    <rect
       x="4"
       y="14"
       width="8"
       height="14"
       style="fill:#52667c;stroke-width:1.1547"
       id="rect2" />
    <rect
       x="14"
       y="28"
       width="14"
       height="4"
       style="fill:#14192b;stroke-width:1.08012"
       id="rect4" />
    <rect
       x="8"
       y="0"
       width="4"
       height="8"
       style="fill:#14192b"
       id="rect5" />
    <rect
       x="24"
       y="18"
       width="4"
       height="8"
       style="fill:#293346"
       id="rect6" />
    <rect
       x="14"
       y="0"
       width="14"
       height="2"
       style="fill:#52667c"
       id="rect8" />
    <rect
       x="2"
       y="6"
       width="6"
       height="4"
       style="fill:#52667c"
       id="rect9" />
    <rect
       x="2"
       y="26"
       width="6"
       height="4"
       style="fill:#52667c;stroke-width:1"
       id="rect11" />
    <rect
       x="18"
       y="14"
       width="6"
       height="4"
       style="fill:#52667c"
       id="rect12" />
    <rect
       x="28"
       y="24"
       width="4"
       height="6"
       style="fill:#00000f"
       id="rect13" />
    <rect
       x="12"
       y="16"
       width="2"
       height="10"
       style="fill:#52667c"
       id="rect16" />
    <rect
       x="14"
       y="14"
       width="4"
       height="4"
       style="fill:#00000f"
       id="rect19" />
    <rect
       x="0"
       y="26"
       width="2"
       height="6"
       style="fill:#14192b"
       id="rect20" />
    <rect
       x="4"
       y="12"
       width="2"
       height="6"
       style="fill:#00000f"
       id="rect22" />
    <rect
       x="8"
       y="8"
       width="6"
       height="2"
       style="fill:#52667c"
       id="rect23" />
    <rect
       x="0"
       y="14"
       width="4"
       height="4"
       style="fill:#14192b;stroke-width:1.41421"
       id="rect28" />
    <rect
       x="2"
       y="0"
       width="2"
       height="4"
       style="fill:#52667c"
       id="rect30" />
    <rect
       x="4"
       y="10"
       width="4"
       height="2"
       style="fill:#52667c"
       id="rect33" />
    <rect
       x="12"
       y="2"
       width="4"
       height="2"
       style="fill:#52667c"
       id="rect34" />
    <rect
       x="14"
       y="26"
       width="4"
       height="2"
       style="fill:#14192b"
       id="rect36" />
    <rect
       x="16"
       y="12"
       width="4"
       height="2"
       style="fill:#00000f"
       id="rect37" />
    <rect
       x="18"
       y="26"
       width="4"
       height="2"
       style="fill:#293346"
       id="rect38" />
    <rect
       x="20"
       y="18"
       width="4"
       height="2"
       style="fill:#52667c"
       id="rect39" />
    <rect
       x="22"
       y="12"
       width="4"
       height="2"
       style="fill:#52667c"
       id="rect40" />
    <rect
       x="26"
       y="30"
       width="4"
       height="2"
       style="fill:#00000f"
       id="rect41" />
    <rect
       x="30"
       y="8"
       width="2"
       height="8"
       style="fill:#293346;stroke-width:1.41421"
       id="rect42" />
    <rect
       x="30"
       y="16"
       width="2"
       height="4"
       style="fill:#14192b"
       id="rect43" />
    <rect
       x="0"
       y="2"
       width="2"
       height="2"
       style="fill:#293346"
       id="rect45" />
    <rect
       x="0"
       y="20"
       width="2"
       height="2"
       style="fill:#52667c"
       id="rect48" />
    <rect
       x="2"
       y="4"
       width="2"
       height="2"
       style="fill:#3d4c61"
       id="rect49" />
    <rect
       x="2"
       y="16"
       width="2"
       height="2"
       style="fill:#293346"
       id="rect50" />
    <rect
       x="2"
       y="24"
       width="2"
       height="2"
       style="fill:#293346"
       id="rect51" />
    <rect
       x="10"
       y="10"
       width="2"
       height="2"
       style="fill:#52667c"
       id="rect54" />
    <rect
       x="12"
       y="0"
       width="2"
       height="2"
       style="fill:#14192b"
       id="rect55" />
    <rect
       x="12"
       y="10"
       width="2"
       height="2"
       style="fill:#293346"
       id="rect56" />
    <rect
       x="12"
       y="14"
       width="2"
       height="2"
       style="fill:#00000f"
       id="rect57" />
    <rect
       x="12"
       y="30"
       width="2"
       height="2"
       style="fill:#293346"
       id="rect59" />
    <rect
       x="14"
       y="12"
       width="2"
       height="2"
       style="fill:#293346"
       id="rect60" />
    <rect
       x="22"
       y="20"
       width="2"
       height="2"
       style="fill:#293346"
       id="rect62" />
    <rect
       x="22"
       y="22"
       width="2"
       height="2"
       style="fill:#00000f"
       id="rect63" />
    <rect
       x="24"
       y="14"
       width="2"
       height="2"
       style="fill:#52667c"
       id="rect65" />
    <rect
       x="24"
       y="16"
       width="2"
       height="2"
       style="fill:#293346"
       id="rect66" />
    <rect
       x="26"
       y="14"
       width="2"
       height="2"
       style="fill:#14192b"
       id="rect68" />
    <rect
       x="28"
       y="10"
       width="2"
       height="2"
       style="fill:#293346"
       id="rect72" />
    <rect
       x="28"
       y="12"
       width="2"
       height="2"
       style="fill:#14192b"
       id="rect73" />
    <rect
       x="28"
       y="20"
       width="2"
       height="2"
       style="fill:#293346"
       id="rect74" />
    <rect
       x="28"
       y="22"
       width="2"
       height="2"
       style="fill:#00000f"
       id="rect75" />
    <rect
       x="30"
       y="10"
       width="2"
       height="2"
       style="fill:#14192b"
       id="rect77" />
    <rect
       x="30"
       y="20"
       width="2"
       height="2"
       style="fill:#00000f"
       id="rect78" />
    <rect
       x="30"
       y="22"
       width="2"
       height="2"
       style="fill:#293346"
       id="rect79" />
  </g>
</svg>
